<svg width="102" height="101" viewBox="0 0 102 101" fill="none" xmlns="http://www.w3.org/2000/svg">
<rect width="102" height="101" rx="50" fill="#E2E9F6"/>
<mask id="path-2-outside-1_1_9199" maskUnits="userSpaceOnUse" x="37.7756" y="87.443" width="9.3879" height="9.3879" fill="black">
<rect fill="white" x="37.7756" y="87.443" width="9.3879" height="9.3879"/>
<path d="M42.3098 89.0487L43.6464 89.3103L42.7132 94.0778L44.932 94.5121L44.6965 95.7151L38.9222 94.5847L39.1577 93.3817L41.3765 93.8161L42.3098 89.0487Z"/>
</mask>
<path d="M42.3098 89.0487L42.4842 88.1576L41.5931 87.9831L41.4187 88.8742L42.3098 89.0487ZM43.6464 89.3103L44.5375 89.4848L44.712 88.5937L43.8209 88.4192L43.6464 89.3103ZM42.7132 94.0778L41.8221 93.9033L41.6476 94.7944L42.5387 94.9689L42.7132 94.0778ZM44.932 94.5121L45.8231 94.6866L45.9976 93.7955L45.1065 93.621L44.932 94.5121ZM44.6965 95.7151L44.5221 96.6062L45.4132 96.7807L45.5876 95.8896L44.6965 95.7151ZM38.9222 94.5847L38.0311 94.4103L37.8566 95.3014L38.7477 95.4758L38.9222 94.5847ZM39.1577 93.3817L39.3321 92.4906L38.441 92.3162L38.2666 93.2073L39.1577 93.3817ZM41.3765 93.8161L41.2021 94.7072L42.0932 94.8816L42.2676 93.9905L41.3765 93.8161ZM42.1353 89.9398L43.472 90.2015L43.8209 88.4192L42.4842 88.1576L42.1353 89.9398ZM42.7553 89.1359L41.8221 93.9033L43.6043 94.2522L44.5375 89.4848L42.7553 89.1359ZM42.5387 94.9689L44.7576 95.4032L45.1065 93.621L42.8876 93.1867L42.5387 94.9689ZM44.0409 94.3377L43.8054 95.5407L45.5876 95.8896L45.8231 94.6866L44.0409 94.3377ZM44.871 94.824L39.0966 93.6936L38.7477 95.4758L44.5221 96.6062L44.871 94.824ZM39.8133 94.7592L40.0488 93.5562L38.2666 93.2073L38.0311 94.4103L39.8133 94.7592ZM38.9832 94.2728L41.2021 94.7072L41.551 92.925L39.3321 92.4906L38.9832 94.2728ZM42.2676 93.9905L43.2009 89.2231L41.4187 88.8742L40.4854 93.6416L42.2676 93.9905Z" fill="#002F49" fill-opacity="0.95" mask="url(#path-2-outside-1_1_9199)"/>
<mask id="path-4-outside-2_1_9199" maskUnits="userSpaceOnUse" x="27.4456" y="83.7508" width="11.4493" height="10.9331" fill="black">
<rect fill="white" x="27.4456" y="83.7508" width="11.4493" height="10.9331"/>
<path d="M35.9973 87.1783L37.2455 87.7233L34.8109 93.2987L31.732 91.9542C30.359 91.3547 29.842 90.4057 30.3071 89.3405C30.7032 88.4335 31.4636 88.1215 32.5557 88.4795L32.5848 88.4129C32.1437 88.0618 32.0685 87.7119 32.0313 87.23L31.8782 85.3796L33.3261 86.0119L33.4594 87.7941C33.4951 88.3249 33.6414 88.5572 34.2905 88.8407L35.1143 89.2004L35.9973 87.1783ZM34.0533 91.6303L34.7037 90.1407L32.8813 89.3449C32.2905 89.087 31.9515 89.1371 31.6972 89.7196C31.4573 90.2688 31.6401 90.5765 32.2309 90.8345L34.0533 91.6303Z"/>
</mask>
<path d="M35.9973 87.1783L36.3606 86.3461L35.5285 85.9828L35.1651 86.8149L35.9973 87.1783ZM37.2455 87.7233L38.0776 88.0867L38.441 87.2546L37.6089 86.8912L37.2455 87.7233ZM34.8109 93.2987L34.4476 94.1308L35.2797 94.4942L35.6431 93.6621L34.8109 93.2987ZM32.5557 88.4795L32.2729 89.3423L33.0575 89.5995L33.3879 88.8429L32.5557 88.4795ZM32.5848 88.4129L33.4169 88.7763L33.6961 88.137L33.1503 87.7025L32.5848 88.4129ZM32.0313 87.23L32.9366 87.16L32.9362 87.1551L32.0313 87.23ZM31.8782 85.3796L32.2415 84.5475L30.8478 83.9389L30.9732 85.4545L31.8782 85.3796ZM33.3261 86.0119L34.2316 85.9442L34.1908 85.3986L33.6895 85.1797L33.3261 86.0119ZM33.4594 87.7941L34.3654 87.7331L34.3649 87.7264L33.4594 87.7941ZM35.1143 89.2004L34.7509 90.0325L35.5831 90.3959L35.9464 89.5638L35.1143 89.2004ZM34.0533 91.6303L33.6899 92.4624L34.522 92.8258L34.8854 91.9936L34.0533 91.6303ZM34.7037 90.1407L35.5358 90.5041L35.8992 89.6719L35.0671 89.3086L34.7037 90.1407ZM35.6339 88.0104L36.8821 88.5555L37.6089 86.8912L36.3606 86.3461L35.6339 88.0104ZM36.4134 87.36L33.9788 92.9353L35.6431 93.6621L38.0776 88.0867L36.4134 87.36ZM35.1743 92.4666L32.0954 91.1221L31.3686 92.7864L34.4476 94.1308L35.1743 92.4666ZM32.0954 91.1221C31.5164 90.8693 31.24 90.5938 31.1275 90.3874C31.0351 90.2178 31.0049 90.0117 31.1393 89.7039L29.475 88.9772C29.1443 89.7345 29.14 90.5355 29.533 91.2565C29.906 91.9409 30.5746 92.4396 31.3686 92.7864L32.0954 91.1221ZM31.1393 89.7039C31.2651 89.4157 31.4002 89.3206 31.5002 89.2816C31.617 89.2361 31.8511 89.2041 32.2729 89.3423L32.8386 87.6166C32.1683 87.3969 31.4761 87.3419 30.8406 87.5896C30.1884 87.8439 29.7452 88.3583 29.475 88.9772L31.1393 89.7039ZM33.3879 88.8429L33.4169 88.7763L31.7527 88.0496L31.7236 88.1161L33.3879 88.8429ZM33.1503 87.7025C33.0344 87.6103 33.0089 87.5558 32.9967 87.5259C32.9749 87.4728 32.954 87.3844 32.9366 87.16L31.126 87.2999C31.1459 87.5575 31.1811 87.8849 31.3165 88.215C31.4614 88.5684 31.694 88.8644 32.0193 89.1233L33.1503 87.7025ZM32.9362 87.1551L32.7831 85.3047L30.9732 85.4545L31.1264 87.3048L32.9362 87.1551ZM31.5148 86.2118L32.9627 86.844L33.6895 85.1797L32.2415 84.5475L31.5148 86.2118ZM32.4206 86.0796L32.5539 87.8618L34.3649 87.7264L34.2316 85.9442L32.4206 86.0796ZM32.5534 87.8551C32.5755 88.1827 32.6392 88.5895 32.9235 88.9615C33.1905 89.3109 33.5668 89.5155 33.9271 89.6728L34.6538 88.0085C34.5179 87.9492 34.4389 87.9055 34.3933 87.8753C34.3513 87.8474 34.3527 87.8408 34.3664 87.8588C34.4064 87.9111 34.3791 87.9363 34.3654 87.7331L32.5534 87.8551ZM33.9271 89.6728L34.7509 90.0325L35.4777 88.3683L34.6538 88.0085L33.9271 89.6728ZM35.9464 89.5638L36.8294 87.5417L35.1651 86.8149L34.2822 88.837L35.9464 89.5638ZM34.8854 91.9936L35.5358 90.5041L33.8716 89.7774L33.2211 91.2669L34.8854 91.9936ZM35.0671 89.3086L33.2447 88.5128L32.5179 90.1771L34.3403 90.9729L35.0671 89.3086ZM33.2447 88.5128C32.918 88.3701 32.4316 88.1995 31.9191 88.3425C31.3441 88.5028 31.0382 88.9597 30.865 89.3562L32.5293 90.083C32.5476 90.0411 32.5618 90.0152 32.5706 90.0008C32.5793 89.9866 32.5804 89.9877 32.5714 89.9973C32.5619 90.0076 32.5423 90.0262 32.5114 90.0456C32.4798 90.0655 32.4441 90.0814 32.407 90.0917C32.3325 90.1125 32.2911 90.1006 32.314 90.1049C32.3252 90.1071 32.3476 90.1123 32.3832 90.1242C32.4186 90.1361 32.463 90.1531 32.5179 90.1771L33.2447 88.5128ZM30.865 89.3562C30.6924 89.7516 30.5796 90.2745 30.8416 90.7947C31.0784 91.265 31.5205 91.5151 31.8675 91.6666L32.5942 90.0023C32.5423 89.9797 32.5023 89.9597 32.4719 89.9427C32.4414 89.9256 32.424 89.9134 32.4158 89.9072C32.3994 89.8947 32.432 89.9152 32.4635 89.9778C32.4791 90.0088 32.4905 90.0425 32.4969 90.0762C32.5032 90.1093 32.5033 90.135 32.5023 90.1498C32.5014 90.1638 32.4996 90.166 32.5029 90.154C32.5062 90.1418 32.5137 90.1186 32.5293 90.083L30.865 89.3562ZM31.8675 91.6666L33.6899 92.4624L34.4166 90.7981L32.5942 90.0023L31.8675 91.6666Z" fill="#002F49" fill-opacity="0.95" mask="url(#path-4-outside-2_1_9199)"/>
<mask id="path-6-outside-3_1_9199" maskUnits="userSpaceOnUse" x="18.353" y="78.036" width="13.6004" height="12.9923" fill="black">
<rect fill="white" x="18.353" y="78.036" width="13.6004" height="12.9923"/>
<path d="M28.5669 83.3376L29.789 84.2506L24.0166 87.5323L22.4599 86.3694L23.9548 79.8923L25.206 80.827L24.8601 82.246L27.297 84.0665L28.5669 83.3376ZM24.8898 85.4531L26.1415 84.7334L24.5484 83.5433L24.2133 84.9477L23.9464 85.9271L24.0264 85.9868L24.8898 85.4531Z"/>
</mask>
<path d="M28.5669 83.3376L29.1103 82.6102L28.6323 82.2531L28.1149 82.5501L28.5669 83.3376ZM29.789 84.2506L30.2378 85.04L31.4445 84.3539L30.3324 83.5231L29.789 84.2506ZM24.0166 87.5323L23.4732 88.2597L23.949 88.6152L24.4654 88.3217L24.0166 87.5323ZM22.4599 86.3694L21.5751 86.1652L21.4419 86.7423L21.9164 87.0968L22.4599 86.3694ZM23.9548 79.8923L24.4982 79.1649L23.3831 78.3318L23.0701 79.6881L23.9548 79.8923ZM25.206 80.827L26.0882 81.0421L26.2304 80.4589L25.7495 80.0996L25.206 80.827ZM24.8601 82.246L23.9779 82.0309L23.8357 82.6142L24.3166 82.9735L24.8601 82.246ZM27.297 84.0665L26.7536 84.7939L27.2316 85.151L27.749 84.854L27.297 84.0665ZM24.8898 85.4531L24.4372 84.6659L24.4246 84.6731L24.4123 84.6807L24.8898 85.4531ZM26.1415 84.7334L26.5941 85.5205L27.7911 84.8322L26.6849 84.0059L26.1415 84.7334ZM24.5484 83.5433L25.0918 82.8158L23.9856 81.9895L23.6651 83.3325L24.5484 83.5433ZM24.2133 84.9477L25.0893 85.1865L25.0931 85.1725L25.0965 85.1584L24.2133 84.9477ZM23.9464 85.9271L23.0703 85.6883L22.9078 86.2846L23.4029 86.6545L23.9464 85.9271ZM24.0264 85.9868L23.483 86.7143L23.9781 87.0842L24.5038 86.7592L24.0264 85.9868ZM28.0234 84.0651L29.2456 84.978L30.3324 83.5231L29.1103 82.6102L28.0234 84.0651ZM29.3402 83.4612L23.5678 86.7429L24.4654 88.3217L30.2378 85.04L29.3402 83.4612ZM24.56 86.8048L23.0033 85.6419L21.9164 87.0968L23.4732 88.2597L24.56 86.8048ZM23.3446 86.5736L24.8396 80.0965L23.0701 79.6881L21.5751 86.1652L23.3446 86.5736ZM23.4114 80.6198L24.6626 81.5545L25.7495 80.0996L24.4982 79.1649L23.4114 80.6198ZM24.3239 80.6119L23.9779 82.0309L25.7422 82.4611L26.0882 81.0421L24.3239 80.6119ZM24.3166 82.9735L26.7536 84.7939L27.8405 83.339L25.4035 81.5186L24.3166 82.9735ZM27.749 84.854L29.0189 84.1252L28.1149 82.5501L26.845 83.279L27.749 84.854ZM25.3424 86.2402L26.5941 85.5205L25.6889 83.9462L24.4372 84.6659L25.3424 86.2402ZM26.6849 84.0059L25.0918 82.8158L24.0049 84.2707L25.5981 85.4608L26.6849 84.0059ZM23.6651 83.3325L23.33 84.737L25.0965 85.1584L25.4316 83.754L23.6651 83.3325ZM23.3372 84.7089L23.0703 85.6883L24.8224 86.1658L25.0893 85.1865L23.3372 84.7089ZM23.4029 86.6545L23.483 86.7143L24.5698 85.2594L24.4898 85.1996L23.4029 86.6545ZM24.5038 86.7592L25.3673 86.2254L24.4123 84.6807L23.5489 85.2145L24.5038 86.7592Z" fill="#002F49" fill-opacity="0.95" mask="url(#path-6-outside-3_1_9199)"/>
<mask id="path-8-outside-4_1_9199" maskUnits="userSpaceOnUse" x="11.0302" y="71.4924" width="12.6743" height="12.6743" fill="black">
<rect fill="white" x="11.0302" y="71.4924" width="12.6743" height="12.6743"/>
<path d="M20.1428 75.5511C21.4257 77.0942 21.2714 78.8403 19.8121 80.0535C18.3527 81.2667 16.6079 81.0996 15.325 79.5565C14.1176 78.1041 14.0659 76.5648 15.2529 75.578L15.3577 75.4909L16.3271 76.6569L16.2223 76.744C15.6079 77.2548 15.6049 77.8478 16.3131 78.6996C17.1664 79.726 17.8487 79.8082 18.8891 78.9433C19.9295 78.0783 19.9733 77.3925 19.12 76.3661C18.4118 75.5142 17.8283 75.4089 17.2138 75.9197L17.1091 76.0068L16.1397 74.8407L16.2444 74.7537C17.4314 73.7668 18.9296 74.0918 20.1428 75.5511Z"/>
</mask>
<path d="M15.3577 75.4909L16.0559 74.9104L15.4754 74.2122L14.7772 74.7926L15.3577 75.4909ZM16.3271 76.6569L16.9075 77.3552L17.6058 76.7747L17.0253 76.0765L16.3271 76.6569ZM17.1091 76.0068L16.4108 76.5873L16.9913 77.2855L17.6896 76.705L17.1091 76.0068ZM16.1397 74.8407L15.5592 74.1425L14.861 74.723L15.4414 75.4212L16.1397 74.8407ZM19.4446 76.1316C19.9662 76.7591 20.1394 77.3549 20.1005 77.8557C20.0619 78.3532 19.8049 78.8786 19.2316 79.3552L20.3925 80.7517C21.2785 80.0151 21.8284 79.0609 21.9111 77.9963C21.9935 76.935 21.6023 75.8863 20.8411 74.9706L19.4446 76.1316ZM19.2316 79.3552C18.6582 79.8319 18.0948 79.9886 17.5986 79.9357C17.0991 79.8824 16.5449 79.6034 16.0232 78.976L14.6268 80.1369C15.388 81.0526 16.3476 81.6287 17.4061 81.7415C18.4679 81.8546 19.5066 81.4883 20.3925 80.7517L19.2316 79.3552ZM16.0232 78.976C15.5094 78.3579 15.3085 77.8007 15.2988 77.3723C15.2899 76.9736 15.4418 76.6017 15.8334 76.2762L14.6724 74.8797C13.877 75.541 13.4613 76.4323 13.4833 77.413C13.5046 78.3641 13.9332 79.3027 14.6268 80.1369L16.0232 78.976ZM15.8334 76.2762L15.9381 76.1891L14.7772 74.7926L14.6724 74.8797L15.8334 76.2762ZM14.6594 76.0714L15.6288 77.2374L17.0253 76.0765L16.0559 74.9104L14.6594 76.0714ZM15.7466 75.9587L15.6418 76.0458L16.8028 77.4422L16.9075 77.3552L15.7466 75.9587ZM15.6418 76.0458C15.1984 76.4145 14.8405 76.9365 14.8642 77.6252C14.8856 78.2457 15.2162 78.8007 15.6148 79.2801L17.0113 78.1191C16.7017 77.7467 16.6797 77.5793 16.6792 77.5627C16.6792 77.5619 16.6792 77.5661 16.6777 77.5725C16.6762 77.5787 16.6749 77.58 16.6775 77.5751C16.6839 77.5633 16.7127 77.5171 16.8028 77.4422L15.6418 76.0458ZM15.6148 79.2801C16.0825 79.8426 16.666 80.3567 17.4406 80.4342C18.2199 80.5121 18.8949 80.1193 19.4696 79.6415L18.3086 78.245C17.8429 78.6322 17.6566 78.6307 17.6213 78.6272C17.5812 78.6232 17.397 78.583 17.0113 78.1191L15.6148 79.2801ZM19.4696 79.6415C20.0442 79.1638 20.5538 78.5718 20.6195 77.7914C20.6848 77.0157 20.2859 76.3481 19.8182 75.7856L18.4217 76.9465C18.8074 77.4104 18.8132 77.5989 18.8098 77.6391C18.8069 77.6744 18.7743 77.8579 18.3086 78.245L19.4696 79.6415ZM19.8182 75.7856C19.4196 75.3062 18.9344 74.8797 18.3282 74.7454C17.6554 74.5963 17.0768 74.8528 16.6333 75.2215L17.7943 76.618C17.8844 76.5431 17.9351 76.5231 17.9478 76.5191C17.9531 76.5174 17.9516 76.5184 17.9452 76.5188C17.9386 76.5191 17.9345 76.5182 17.9353 76.5184C17.9515 76.522 18.1121 76.5741 18.4217 76.9465L19.8182 75.7856ZM16.6333 75.2215L16.5286 75.3086L17.6896 76.705L17.7943 76.618L16.6333 75.2215ZM17.8073 75.4263L16.8379 74.2603L15.4414 75.4212L16.4108 76.5873L17.8073 75.4263ZM16.7202 75.539L16.8249 75.4519L15.6639 74.0554L15.5592 74.1425L16.7202 75.539ZM16.8249 75.4519C17.2182 75.1249 17.6108 75.0434 17.9989 75.1241C18.4163 75.2109 18.9273 75.5094 19.4446 76.1316L20.8411 74.9706C20.1452 74.1335 19.3004 73.5399 18.3687 73.3461C17.4076 73.1462 16.4576 73.3956 15.6639 74.0554L16.8249 75.4519Z" fill="#002F49" fill-opacity="0.95" mask="url(#path-8-outside-4_1_9199)"/>
<mask id="path-10-outside-5_1_9199" maskUnits="userSpaceOnUse" x="6.40824" y="62.6389" width="11.6278" height="12.5221" fill="black">
<rect fill="white" x="6.40824" y="62.6389" width="11.6278" height="12.5221"/>
<path d="M15.9227 69.5928L16.5319 70.811L11.0906 73.532L10.4814 72.3137L12.6417 71.2335L11.9635 69.8772L9.08031 69.5119L8.34931 68.05L11.9756 68.6021L13.8028 65.3534L14.5338 66.8153L13.1411 69.2681L13.8274 70.6406L15.9227 69.5928Z"/>
</mask>
<path d="M15.9227 69.5928L16.7349 69.1867L16.3288 68.3746L15.5166 68.7807L15.9227 69.5928ZM16.5319 70.811L16.938 71.6232L17.7501 71.2171L17.344 70.4049L16.5319 70.811ZM11.0906 73.532L10.2784 73.9381L10.6845 74.7502L11.4967 74.3441L11.0906 73.532ZM10.4814 72.3137L10.0753 71.5016L9.26314 71.9077L9.66925 72.7199L10.4814 72.3137ZM12.6417 71.2335L13.0478 72.0456L13.8599 71.6395L13.4538 70.8274L12.6417 71.2335ZM11.9635 69.8772L12.7756 69.4711L12.5587 69.0374L12.0776 68.9764L11.9635 69.8772ZM9.08031 69.5119L8.26817 69.918L8.48506 70.3517L8.96616 70.4127L9.08031 69.5119ZM8.34931 68.05L8.48599 67.1523L6.7533 66.8885L7.53717 68.4561L8.34931 68.05ZM11.9756 68.6021L11.8389 69.4998L12.4594 69.5943L12.767 69.0473L11.9756 68.6021ZM13.8028 65.3534L14.615 64.9473L13.85 63.4174L13.0114 64.9083L13.8028 65.3534ZM14.5338 66.8153L15.3234 67.2637L15.5626 66.8424L15.346 66.4092L14.5338 66.8153ZM13.1411 69.2681L12.3515 68.8197L12.1123 69.2409L12.3289 69.6742L13.1411 69.2681ZM13.8274 70.6406L13.0153 71.0467L13.4214 71.8588L14.2335 71.4527L13.8274 70.6406ZM15.1106 69.9989L15.7198 71.2171L17.344 70.4049L16.7349 69.1867L15.1106 69.9989ZM16.1258 69.9989L10.6844 72.7198L11.4967 74.3441L16.938 71.6232L16.1258 69.9989ZM11.9027 73.1258L11.2935 71.9076L9.66925 72.7199L10.2784 73.9381L11.9027 73.1258ZM10.8875 73.1259L13.0478 72.0456L12.2356 70.4214L10.0753 71.5016L10.8875 73.1259ZM13.4538 70.8274L12.7756 69.4711L11.1513 70.2833L11.8295 71.6396L13.4538 70.8274ZM12.0776 68.9764L9.19446 68.611L8.96616 70.4127L11.8493 70.778L12.0776 68.9764ZM9.89245 69.1058L9.16145 67.6439L7.53717 68.4561L8.26817 69.918L9.89245 69.1058ZM8.21264 68.9477L11.8389 69.4998L12.1123 67.7045L8.48599 67.1523L8.21264 68.9477ZM12.767 69.0473L14.5943 65.7986L13.0114 64.9083L11.1842 68.157L12.767 69.0473ZM12.9907 65.7595L13.7217 67.2214L15.346 66.4092L14.615 64.9473L12.9907 65.7595ZM13.7442 66.3669L12.3515 68.8197L13.9307 69.7164L15.3234 67.2637L13.7442 66.3669ZM12.3289 69.6742L13.0153 71.0467L14.6396 70.2345L13.9532 68.8619L12.3289 69.6742ZM14.2335 71.4527L16.3288 70.405L15.5166 68.7807L13.4213 69.8284L14.2335 71.4527Z" fill="#002F49" fill-opacity="0.95" mask="url(#path-10-outside-5_1_9199)"/>
<mask id="path-12-outside-6_1_9199" maskUnits="userSpaceOnUse" x="8.41124" y="55.7998" width="4.65817" height="4.65817" fill="black">
<rect fill="white" x="8.41124" y="55.7998" width="4.65817" height="4.65817"/>
<path d="M11.5382 56.9399L11.8555 58.6634L10.2928 58.9511L9.97545 57.2276L11.5382 56.9399Z"/>
</mask>
<path d="M11.5382 56.9399L12.4312 56.7755L12.2668 55.8825L11.3738 56.0469L11.5382 56.9399ZM11.8555 58.6634L12.02 59.5564L12.913 59.392L12.7486 58.499L11.8555 58.6634ZM10.2928 58.9511L9.39977 59.1155L9.56419 60.0086L10.4572 59.8441L10.2928 58.9511ZM9.97545 57.2276L9.81103 56.3346L8.91802 56.499L9.08244 57.392L9.97545 57.2276ZM10.6452 57.1043L10.9625 58.8278L12.7486 58.499L12.4312 56.7755L10.6452 57.1043ZM11.6911 57.7704L10.1284 58.0581L10.4572 59.8441L12.02 59.5564L11.6911 57.7704ZM11.1858 58.7867L10.8685 57.0632L9.08244 57.392L9.39977 59.1155L11.1858 58.7867ZM10.1399 58.1206L11.7026 57.8329L11.3738 56.0469L9.81103 56.3346L10.1399 58.1206Z" fill="#002F49" fill-opacity="0.95" mask="url(#path-12-outside-6_1_9199)"/>
<mask id="path-14-outside-7_1_9199" maskUnits="userSpaceOnUse" x="3.95707" y="46.633" width="8.16112" height="4.33285" fill="black">
<rect fill="white" x="3.95707" y="46.633" width="8.16112" height="4.33285"/>
<path d="M11.0655 48.2009L11.0082 49.5618L4.92985 49.3059L4.98712 47.9451L11.0655 48.2009Z"/>
</mask>
<path d="M11.0655 48.2009L11.9727 48.2391L12.0109 47.3319L11.1036 47.2937L11.0655 48.2009ZM11.0082 49.5618L10.97 50.469L11.8772 50.5072L11.9154 49.5999L11.0082 49.5618ZM4.92985 49.3059L4.02264 49.2678L3.98446 50.175L4.89167 50.2132L4.92985 49.3059ZM4.98712 47.9451L5.02531 47.0379L4.11809 46.9997L4.07991 47.9069L4.98712 47.9451ZM10.1583 48.1628L10.101 49.5236L11.9154 49.5999L11.9727 48.2391L10.1583 48.1628ZM11.0464 48.6545L4.96803 48.3987L4.89167 50.2132L10.97 50.469L11.0464 48.6545ZM5.83707 49.3441L5.89434 47.9833L4.07991 47.9069L4.02264 49.2678L5.83707 49.3441ZM4.94894 48.8523L11.0273 49.1081L11.1036 47.2937L5.02531 47.0379L4.94894 48.8523Z" fill="#002F49" fill-opacity="0.95" mask="url(#path-14-outside-7_1_9199)"/>
<mask id="path-16-outside-8_1_9199" maskUnits="userSpaceOnUse" x="4.13144" y="36.0752" width="9.73221" height="10.4965" fill="black">
<rect fill="white" x="4.13144" y="36.0752" width="9.73221" height="10.4965"/>
<path d="M11.5511 43.696L11.2612 45.0269L5.31686 43.732L5.62607 42.3125L8.90236 40.7958L10.3311 40.2521L10.3524 40.1545L9.14112 39.9557L6.27542 39.3315L6.5653 38.0006L12.5096 39.2955L12.2004 40.715L8.884 42.288L7.60184 42.7986L7.58251 42.8873L8.68538 43.0718L11.5511 43.696Z"/>
</mask>
<path d="M11.5511 43.696L12.4383 43.8893L12.6316 43.0021L11.7443 42.8088L11.5511 43.696ZM11.2612 45.0269L11.0679 45.9141L11.9552 46.1073L12.1484 45.2201L11.2612 45.0269ZM5.31686 43.732L4.42965 43.5388L4.23639 44.426L5.1236 44.6193L5.31686 43.732ZM5.62607 42.3125L5.24462 41.4885L4.83494 41.6781L4.73886 42.1192L5.62607 42.3125ZM8.90236 40.7958L8.57939 39.9472L8.54972 39.9585L8.5209 39.9718L8.90236 40.7958ZM10.3311 40.2521L10.6541 41.1007L11.1137 40.9258L11.2183 40.4453L10.3311 40.2521ZM10.3524 40.1545L11.2396 40.3477L11.4431 39.4133L10.4994 39.2584L10.3524 40.1545ZM9.14112 39.9557L8.94786 40.8429L8.97085 40.8479L8.99406 40.8517L9.14112 39.9557ZM6.27542 39.3315L5.3882 39.1382L5.19495 40.0254L6.08216 40.2187L6.27542 39.3315ZM6.5653 38.0006L6.75856 37.1134L5.87135 36.9202L5.67809 37.8074L6.5653 38.0006ZM12.5096 39.2955L13.3969 39.4887L13.5901 38.6015L12.7029 38.4082L12.5096 39.2955ZM12.2004 40.715L12.5896 41.5354L12.9927 41.3442L13.0876 40.9083L12.2004 40.715ZM8.884 42.288L9.21996 43.1316L9.24691 43.1208L9.27312 43.1084L8.884 42.288ZM7.60184 42.7986L7.26588 41.955L6.81737 42.1337L6.71462 42.6054L7.60184 42.7986ZM7.58251 42.8873L6.6953 42.6941L6.49238 43.6256L7.43271 43.7829L7.58251 42.8873ZM8.68538 43.0718L8.87864 42.1846L8.85701 42.1799L8.83518 42.1762L8.68538 43.0718ZM10.6639 43.5028L10.374 44.8336L12.1484 45.2201L12.4383 43.8893L10.6639 43.5028ZM11.4545 44.1396L5.51012 42.8448L5.1236 44.6193L11.0679 45.9141L11.4545 44.1396ZM6.20408 43.9253L6.51329 42.5058L4.73886 42.1192L4.42965 43.5388L6.20408 43.9253ZM6.00753 43.1365L9.28382 41.6198L8.5209 39.9718L5.24462 41.4885L6.00753 43.1365ZM9.22533 41.6444L10.6541 41.1007L10.0082 39.4034L8.57939 39.9472L9.22533 41.6444ZM11.2183 40.4453L11.2396 40.3477L9.46517 39.9612L9.44391 40.0588L11.2183 40.4453ZM10.4994 39.2584L9.28818 39.0596L8.99406 40.8517L10.2053 41.0505L10.4994 39.2584ZM9.33438 39.0685L6.46867 38.4442L6.08216 40.2187L8.94786 40.8429L9.33438 39.0685ZM7.16263 39.5247L7.45252 38.1939L5.67809 37.8074L5.3882 39.1382L7.16263 39.5247ZM6.37205 38.8878L12.3164 40.1827L12.7029 38.4082L6.75856 37.1134L6.37205 38.8878ZM11.6224 39.1022L11.3132 40.5217L13.0876 40.9083L13.3969 39.4887L11.6224 39.1022ZM11.8113 39.8946L8.49487 41.4676L9.27312 43.1084L12.5896 41.5354L11.8113 39.8946ZM8.54803 41.4444L7.26588 41.955L7.9378 43.6422L9.21996 43.1316L8.54803 41.4444ZM6.71462 42.6054L6.6953 42.6941L8.46973 43.0806L8.48905 42.9919L6.71462 42.6054ZM7.43271 43.7829L8.53558 43.9674L8.83518 42.1762L7.73231 41.9918L7.43271 43.7829ZM8.49212 43.959L11.3578 44.5833L11.7443 42.8088L8.87864 42.1846L8.49212 43.959Z" fill="#002F49" fill-opacity="0.95" mask="url(#path-16-outside-8_1_9199)"/>
<mask id="path-18-outside-9_1_9199" maskUnits="userSpaceOnUse" x="5.72051" y="25.9056" width="11.9949" height="11.9949" fill="black">
<rect fill="white" x="5.72051" y="25.9056" width="11.9949" height="11.9949"/>
<path d="M14.9505 33.4668C14.0878 35.2786 12.4381 35.8709 10.7246 35.0551C9.01115 34.2393 8.43093 32.5853 9.29358 30.7734C10.1055 29.0682 11.4812 28.3755 12.8749 29.0391L12.9979 29.0977L12.346 30.4668L12.223 30.4082C11.5016 30.0647 10.9621 30.3107 10.4859 31.3109C9.91206 32.5161 10.1237 33.17 11.3452 33.7516C12.5668 34.3332 13.2078 34.0852 13.7816 32.8801C14.2578 31.8799 14.1087 31.306 13.3872 30.9625L13.2642 30.904L13.9161 29.5348L14.0391 29.5934C15.4328 30.257 15.7663 31.7533 14.9505 33.4668Z"/>
</mask>
<path d="M12.9979 29.0977L13.8177 29.488L14.208 28.6682L13.3882 28.2778L12.9979 29.0977ZM12.346 30.4668L11.9557 31.2866L12.7755 31.677L13.1658 30.8571L12.346 30.4668ZM13.2642 30.904L12.4444 30.5136L12.054 31.3335L12.8739 31.7238L13.2642 30.904ZM13.9161 29.5348L14.3064 28.715L13.4866 28.3247L13.0963 29.1445L13.9161 29.5348ZM14.1306 33.0764C13.7799 33.8132 13.3116 34.2202 12.8406 34.395C12.3728 34.5686 11.7881 34.5558 11.1149 34.2353L10.3343 35.8749C11.3746 36.3702 12.4714 36.4691 13.4725 36.0976C14.4705 35.7272 15.2584 34.9322 15.7703 33.8571L14.1306 33.0764ZM11.1149 34.2353C10.4418 33.9148 10.0632 33.469 9.90305 32.9964C9.74185 32.5206 9.76265 31.9005 10.1134 31.1638L8.47375 30.3831C7.96187 31.4582 7.84145 32.571 8.18306 33.5792C8.52574 34.5905 9.29398 35.3796 10.3343 35.8749L11.1149 34.2353ZM10.1134 31.1638C10.4589 30.438 10.8805 30.0219 11.2653 29.8335C11.6235 29.6581 12.0248 29.64 12.4846 29.8589L13.2652 28.2193C12.3313 27.7746 11.3478 27.7711 10.4668 28.2024C9.61239 28.6207 8.94013 29.4035 8.47375 30.3831L10.1134 31.1638ZM12.4846 29.8589L12.6075 29.9175L13.3882 28.2778L13.2652 28.2193L12.4846 29.8589ZM12.178 28.7073L11.5262 30.0764L13.1658 30.8571L13.8177 29.488L12.178 28.7073ZM12.7363 29.6469L12.6134 29.5884L11.8327 31.2281L11.9557 31.2866L12.7363 29.6469ZM12.6134 29.5884C12.0927 29.3405 11.4687 29.2346 10.8535 29.545C10.2991 29.8247 9.93403 30.3577 9.66602 30.9206L11.3057 31.7013C11.5139 31.264 11.6567 31.1738 11.6715 31.1664C11.6722 31.166 11.6685 31.1678 11.662 31.1691C11.6558 31.1704 11.654 31.1697 11.6595 31.1701C11.6729 31.1709 11.7269 31.1777 11.8327 31.2281L12.6134 29.5884ZM9.66602 30.9206C9.35156 31.5811 9.12963 32.3265 9.38422 33.0621C9.64037 33.8022 10.2802 34.2501 10.9549 34.5714L11.7356 32.9317C11.1888 32.6714 11.112 32.5016 11.1004 32.4681C11.0872 32.43 11.0464 32.2459 11.3057 31.7013L9.66602 30.9206ZM10.9549 34.5714C11.6296 34.8927 12.3807 35.1069 13.1167 34.8392C13.8482 34.5731 14.287 33.9309 14.6014 33.2704L12.9618 32.4897C12.7024 33.0344 12.5338 33.1188 12.4959 33.1325C12.4626 33.1447 12.2824 33.1921 11.7356 32.9317L10.9549 34.5714ZM14.6014 33.2704C14.8695 32.7075 15.053 32.0881 14.9207 31.4815C14.7738 30.8083 14.2982 30.3906 13.7775 30.1427L12.9969 31.7824C13.1026 31.8327 13.142 31.8703 13.151 31.8802C13.1548 31.8843 13.1532 31.8834 13.1502 31.8777C13.1471 31.8719 13.1462 31.8678 13.1464 31.8686C13.1499 31.8848 13.17 32.0524 12.9618 32.4897L14.6014 33.2704ZM13.7775 30.1427L13.6546 30.0841L12.8739 31.7238L12.9969 31.7824L13.7775 30.1427ZM14.0841 31.2943L14.7359 29.9252L13.0963 29.1445L12.4444 30.5136L14.0841 31.2943ZM13.5258 30.3547L13.6487 30.4132L14.4294 28.7735L14.3064 28.715L13.5258 30.3547ZM13.6487 30.4132C14.1105 30.6331 14.3492 30.9553 14.4388 31.3414C14.5351 31.7568 14.4785 32.3458 14.1306 33.0764L15.7703 33.8571C16.2383 32.8742 16.4228 31.8584 16.2079 30.9313C15.9862 29.9751 15.3613 29.2172 14.4294 28.7735L13.6487 30.4132Z" fill="#002F49" fill-opacity="0.95" mask="url(#path-18-outside-9_1_9199)"/>
<mask id="path-20-outside-10_1_9199" maskUnits="userSpaceOnUse" x="10.6466" y="17.2204" width="12.6573" height="12.6573" fill="black">
<rect fill="white" x="10.6466" y="17.2204" width="12.6573" height="12.6573"/>
<path d="M19.7648 25.8101C18.4973 27.3776 16.7491 27.5754 15.2735 26.3821C13.7978 25.1889 13.6255 23.438 14.893 21.8706C16.1891 20.2678 17.9315 20.077 19.4071 21.2703C20.8828 22.4636 21.0608 24.2074 19.7648 25.8101ZM18.7481 24.9879C19.5874 23.95 19.5456 23.2507 18.4936 22.4C17.4416 21.5493 16.749 21.6548 15.9097 22.6927C15.0704 23.7306 15.1293 24.4088 16.1813 25.2595C17.2333 26.1102 17.9088 26.0258 18.7481 24.9879Z"/>
</mask>
<path d="M19.0587 25.2392C18.542 25.8781 17.9877 26.1683 17.486 26.2302C16.9884 26.2916 16.4226 26.1436 15.8444 25.6761L14.7025 27.0882C15.6 27.8139 16.6461 28.1637 17.7084 28.0326C18.7665 27.902 19.72 27.3095 20.4708 26.3811L19.0587 25.2392ZM15.8444 25.6761C15.2662 25.2085 15.0031 24.6862 14.959 24.1868C14.9146 23.6833 15.0824 23.0805 15.5991 22.4415L14.1869 21.2996C13.4361 22.2281 13.0563 23.2844 13.15 24.3465C13.2442 25.4127 13.8051 26.3625 14.7025 27.0882L15.8444 25.6761ZM15.5991 22.4415C16.1332 21.781 16.6951 21.4862 17.1966 21.4228C17.6933 21.36 18.2567 21.5078 18.8362 21.9764L19.9781 20.5642C19.0819 19.8396 18.0363 19.4861 16.9688 19.6211C15.9062 19.7554 14.9489 20.3574 14.1869 21.2996L15.5991 22.4415ZM18.8362 21.9764C19.4157 22.445 19.6781 22.965 19.7206 23.4638C19.7636 23.9675 19.5928 24.5787 19.0587 25.2392L20.4708 26.3811C21.2328 25.4388 21.6211 24.3767 21.5301 23.3095C21.4387 22.2374 20.8743 21.2889 19.9781 20.5642L18.8362 21.9764ZM19.4541 25.5589C19.9147 24.9894 20.3041 24.3161 20.2344 23.5423C20.1639 22.7589 19.6512 22.1683 19.0646 21.6939L17.9227 23.106C18.3881 23.4824 18.4223 23.6668 18.4257 23.7052C18.4301 23.7533 18.4207 23.9486 18.042 24.417L19.4541 25.5589ZM19.0646 21.6939C18.478 21.2196 17.7932 20.8418 17.0123 20.9367C16.2411 21.0305 15.6642 21.5522 15.2037 22.1218L16.6158 23.2637C16.9945 22.7953 17.1836 22.7453 17.2315 22.7395C17.2697 22.7349 17.4572 22.7297 17.9227 23.106L19.0646 21.6939ZM15.2037 22.1218C14.744 22.6902 14.354 23.3631 14.4329 24.1383C14.5121 24.9157 15.032 25.4979 15.6103 25.9656L16.7522 24.5535C16.2785 24.1704 16.243 23.9882 16.2396 23.9543C16.2359 23.9183 16.2361 23.7331 16.6158 23.2637L15.2037 22.1218ZM15.6103 25.9656C16.1887 26.4332 16.8668 26.8198 17.6435 26.7346C18.418 26.6495 18.9944 26.1273 19.4541 25.5589L18.042 24.417C17.6624 24.8865 17.4814 24.9254 17.4454 24.9294C17.4116 24.9331 17.2259 24.9365 16.7522 24.5535L15.6103 25.9656Z" fill="#002F49" fill-opacity="0.95" mask="url(#path-20-outside-10_1_9199)"/>
<mask id="path-22-outside-11_1_9199" maskUnits="userSpaceOnUse" x="18.7197" y="10.2112" width="12.7947" height="12.363" fill="black">
<rect fill="white" x="18.7197" y="10.2112" width="12.7947" height="12.363"/>
<path d="M25.0546 20.1571L23.9558 20.9619L20.3609 16.054L21.8479 14.9648L24.7687 16.5397L26.0725 17.3518L26.1531 17.2928L25.7576 15.8154L25.1004 12.5825L26.5948 11.4879L30.1897 16.3959L29.0909 17.2007L27.2666 14.7101L26.7398 13.9141L26.6593 13.9731L26.937 14.9515L27.5211 17.9003L26.1879 18.8768L23.5527 17.4304L22.7036 16.8705L22.623 16.9295L23.2303 17.6665L25.0546 20.1571Z"/>
</mask>
<path d="M25.0546 20.1571L25.5912 20.8896L26.3237 20.3531L25.7872 19.6206L25.0546 20.1571ZM23.9558 20.9619L23.2233 21.4985L23.7598 22.231L24.4924 21.6945L23.9558 20.9619ZM20.3609 16.054L19.8243 15.3214L19.0918 15.858L19.6284 16.5905L20.3609 16.054ZM21.8479 14.9648L22.2789 14.1655L21.7741 13.8933L21.3114 14.2322L21.8479 14.9648ZM24.7687 16.5397L25.2487 15.769L25.2246 15.754L25.1996 15.7405L24.7687 16.5397ZM26.0725 17.3518L25.5925 18.1225L26.1137 18.4471L26.6091 18.0843L26.0725 17.3518ZM26.1531 17.2928L26.6897 18.0253L27.1909 17.6581L27.0303 17.0579L26.1531 17.2928ZM25.7576 15.8154L24.8678 15.9963L24.8733 16.0234L24.8805 16.0502L25.7576 15.8154ZM25.1004 12.5825L24.5638 11.8499L24.0947 12.1935L24.2106 12.7633L25.1004 12.5825ZM26.5948 11.4879L27.3273 10.9513L26.7907 10.2188L26.0582 10.7553L26.5948 11.4879ZM30.1897 16.3959L30.7262 17.1284L31.4588 16.5918L30.9222 15.8593L30.1897 16.3959ZM29.0909 17.2007L28.3584 17.7372L28.8949 18.4698L29.6274 17.9332L29.0909 17.2007ZM27.2666 14.7101L26.5094 15.2112L26.5213 15.2292L26.5341 15.2466L27.2666 14.7101ZM26.7398 13.9141L27.4971 13.413L26.9715 12.6188L26.2033 13.1816L26.7398 13.9141ZM26.6593 13.9731L26.1227 13.2406L25.6134 13.6137L25.7857 14.221L26.6593 13.9731ZM26.937 14.9515L27.8277 14.7751L27.8205 14.739L27.8105 14.7036L26.937 14.9515ZM27.5211 17.9003L28.0576 18.6328L28.5242 18.2911L28.4118 17.7239L27.5211 17.9003ZM26.1879 18.8768L25.751 19.6728L26.2579 19.9511L26.7244 19.6094L26.1879 18.8768ZM23.5527 17.4304L23.0528 18.1885L23.0835 18.2087L23.1157 18.2264L23.5527 17.4304ZM22.7036 16.8705L23.2035 16.1125L22.6764 15.7649L22.167 16.138L22.7036 16.8705ZM22.623 16.9295L22.0864 16.197L21.3109 16.7651L21.9223 17.507L22.623 16.9295ZM23.2303 17.6665L23.9629 17.1299L23.9476 17.109L23.9311 17.089L23.2303 17.6665ZM24.5181 19.4246L23.4193 20.2294L24.4924 21.6945L25.5912 20.8896L24.5181 19.4246ZM24.6884 20.4254L21.0934 15.5174L19.6284 16.5905L23.2233 21.4985L24.6884 20.4254ZM20.8975 16.7865L22.3845 15.6973L21.3114 14.2322L19.8243 15.3214L20.8975 16.7865ZM21.417 15.764L24.3377 17.339L25.1996 15.7405L22.2789 14.1655L21.417 15.764ZM24.2886 17.3105L25.5925 18.1225L26.5526 16.581L25.2487 15.769L24.2886 17.3105ZM26.6091 18.0843L26.6897 18.0253L25.6166 16.5602L25.536 16.6192L26.6091 18.0843ZM27.0303 17.0579L26.6347 15.5805L24.8805 16.0502L25.276 17.5276L27.0303 17.0579ZM26.6474 15.6345L25.9902 12.4016L24.2106 12.7633L24.8678 15.9963L26.6474 15.6345ZM25.637 13.315L27.1313 12.2204L26.0582 10.7553L24.5638 11.8499L25.637 13.315ZM25.8622 12.0244L29.4572 16.9324L30.9222 15.8593L27.3273 10.9513L25.8622 12.0244ZM29.6531 15.6633L28.5543 16.4682L29.6274 17.9332L30.7262 17.1284L29.6531 15.6633ZM29.8234 16.6641L27.9991 14.1735L26.5341 15.2466L28.3584 17.7372L29.8234 16.6641ZM28.0238 14.209L27.4971 13.413L25.9826 14.4152L26.5094 15.2112L28.0238 14.209ZM26.2033 13.1816L26.1227 13.2406L27.1958 14.7056L27.2764 14.6466L26.2033 13.1816ZM25.7857 14.221L26.0634 15.1994L27.8105 14.7036L27.5328 13.7252L25.7857 14.221ZM26.0462 15.128L26.6304 18.0767L28.4118 17.7239L27.8277 14.7751L26.0462 15.128ZM26.9845 17.1678L25.6513 18.1443L26.7244 19.6094L28.0576 18.6328L26.9845 17.1678ZM26.6248 18.0808L23.9896 16.6344L23.1157 18.2264L25.751 19.6728L26.6248 18.0808ZM24.0525 16.6724L23.2035 16.1125L22.2037 17.6285L23.0528 18.1885L24.0525 16.6724ZM22.167 16.138L22.0864 16.197L23.1596 17.6621L23.2401 17.603L22.167 16.138ZM21.9223 17.507L22.5296 18.244L23.9311 17.089L23.3237 16.3521L21.9223 17.507ZM22.4978 18.2031L24.3221 20.6937L25.7872 19.6206L23.9629 17.1299L22.4978 18.2031Z" fill="#002F49" fill-opacity="0.95" mask="url(#path-22-outside-11_1_9199)"/>
<mask id="path-24-outside-12_1_9199" maskUnits="userSpaceOnUse" x="29.1046" y="5.96486" width="10.4443" height="10.4443" fill="black">
<rect fill="white" x="29.1046" y="5.96486" width="10.4443" height="10.4443"/>
<path d="M37.7918 13.004L33.0315 14.9653L30.714 9.34022L35.4743 7.37901L35.9413 8.51241L32.4403 9.95478L32.8934 11.0546L36.2684 9.66411L36.7319 10.7891L33.3569 12.1796L33.8239 13.313L37.3248 11.8706L37.7918 13.004Z"/>
</mask>
<path d="M37.7918 13.004L38.1377 13.8436L38.9772 13.4977L38.6313 12.6581L37.7918 13.004ZM33.0315 14.9653L32.1919 15.3111L32.5378 16.1507L33.3774 15.8048L33.0315 14.9653ZM30.714 9.34022L30.3681 8.50067L29.5286 8.84656L29.8745 9.68612L30.714 9.34022ZM35.4743 7.37901L36.3139 7.03311L35.968 6.19356L35.1284 6.53945L35.4743 7.37901ZM35.9413 8.51241L36.2872 9.35196L37.1267 9.00607L36.7808 8.16651L35.9413 8.51241ZM32.4403 9.95478L32.0944 9.11523L31.2549 9.46112L31.6008 10.3007L32.4403 9.95478ZM32.8934 11.0546L32.0539 11.4005L32.3998 12.2401L33.2393 11.8942L32.8934 11.0546ZM36.2684 9.66411L37.108 9.31822L36.7621 8.47866L35.9226 8.82455L36.2684 9.66411ZM36.7319 10.7891L37.0778 11.6287L37.9174 11.2828L37.5715 10.4432L36.7319 10.7891ZM33.3569 12.1796L33.011 11.3401L32.1715 11.6859L32.5174 12.5255L33.3569 12.1796ZM33.8239 13.313L32.9843 13.6589L33.3302 14.4985L34.1698 14.1526L33.8239 13.313ZM37.3248 11.8706L38.1644 11.5247L37.8185 10.6852L36.9789 11.0311L37.3248 11.8706ZM37.4459 12.1645L32.6856 14.1257L33.3774 15.8048L38.1377 13.8436L37.4459 12.1645ZM33.8711 14.6194L31.5536 8.99433L29.8745 9.68612L32.1919 15.3111L33.8711 14.6194ZM31.0599 10.1798L35.8202 8.21856L35.1284 6.53945L30.3681 8.50067L31.0599 10.1798ZM34.6347 7.7249L35.1017 8.8583L36.7808 8.16651L36.3139 7.03311L34.6347 7.7249ZM35.5954 7.67285L32.0944 9.11523L32.7862 10.7943L36.2872 9.35196L35.5954 7.67285ZM31.6008 10.3007L32.0539 11.4005L33.733 10.7087L33.2799 9.60889L31.6008 10.3007ZM33.2393 11.8942L36.6143 10.5037L35.9226 8.82455L32.5475 10.215L33.2393 11.8942ZM35.4289 10.01L35.8924 11.135L37.5715 10.4432L37.108 9.31822L35.4289 10.01ZM36.3861 9.94956L33.011 11.3401L33.7028 13.0192L37.0778 11.6287L36.3861 9.94956ZM32.5174 12.5255L32.9843 13.6589L34.6634 12.9671L34.1965 11.8337L32.5174 12.5255ZM34.1698 14.1526L37.6707 12.7102L36.9789 11.0311L33.478 12.4735L34.1698 14.1526ZM36.4853 12.2165L36.9522 13.3499L38.6313 12.6581L38.1644 11.5247L36.4853 12.2165Z" fill="#002F49" fill-opacity="0.95" mask="url(#path-24-outside-12_1_9199)"/>
<mask id="path-26-outside-13_1_9199" maskUnits="userSpaceOnUse" x="42.994" y="8.11672" width="4.45249" height="4.45249" fill="black">
<rect fill="white" x="42.994" y="8.11672" width="4.45249" height="4.45249"/>
<path d="M46.3581 11.2123L44.6184 11.4233L44.4271 9.84582L46.1668 9.63483L46.3581 11.2123Z"/>
</mask>
<path d="M46.3581 11.2123L46.4674 12.1137L47.3688 12.0044L47.2595 11.103L46.3581 11.2123ZM44.6184 11.4233L43.717 11.5326L43.8263 12.434L44.7277 12.3247L44.6184 11.4233ZM44.4271 9.84582L44.3177 8.9444L43.4163 9.05373L43.5256 9.95514L44.4271 9.84582ZM46.1668 9.63483L47.0682 9.5255L46.9589 8.62409L46.0575 8.73341L46.1668 9.63483ZM46.2488 10.3109L44.509 10.5219L44.7277 12.3247L46.4674 12.1137L46.2488 10.3109ZM45.5198 11.314L45.3285 9.7365L43.5256 9.95514L43.717 11.5326L45.5198 11.314ZM44.5364 10.7472L46.2761 10.5362L46.0575 8.73341L44.3177 8.9444L44.5364 10.7472ZM45.2654 9.74415L45.4567 11.3216L47.2595 11.103L47.0682 9.5255L45.2654 9.74415Z" fill="#002F49" fill-opacity="0.95" mask="url(#path-26-outside-13_1_9199)"/>
<mask id="path-28-outside-14_1_9199" maskUnits="userSpaceOnUse" x="51.2729" y="3.71465" width="12.1747" height="9.714" fill="black">
<rect fill="white" x="51.2729" y="3.71465" width="12.1747" height="9.714"/>
<path d="M54.8707 11.195L53.3663 10.9419L56.9992 5.38386L58.9155 5.70622L60.5477 12.15L59.0076 11.8909L58.6664 10.4708L55.6667 9.96615L54.8707 11.195ZM57.1735 7.63224L56.3894 8.84468L58.3504 9.17457L58.0062 7.77233L57.7958 6.77932L57.6973 6.76275L57.1735 7.63224Z"/>
</mask>
<path d="M54.8707 11.195L54.72 12.0904L55.3084 12.1894L55.6328 11.6887L54.8707 11.195ZM53.3663 10.9419L52.6063 10.4451L51.8468 11.6071L53.2157 11.8374L53.3663 10.9419ZM56.9992 5.38386L57.1499 4.48842L56.5641 4.38989L56.2392 4.88706L56.9992 5.38386ZM58.9155 5.70622L59.7957 5.48326L59.6502 4.90905L59.0661 4.81079L58.9155 5.70622ZM60.5477 12.15L60.3971 13.0455L61.7698 13.2764L61.428 11.9271L60.5477 12.15ZM59.0076 11.8909L58.1247 12.103L58.2649 12.6868L58.857 12.7864L59.0076 11.8909ZM58.6664 10.4708L59.5493 10.2587L59.4091 9.67494L58.817 9.57535L58.6664 10.4708ZM55.6667 9.96615L55.8173 9.07071L55.229 8.97173L54.9046 9.47248L55.6667 9.96615ZM57.1735 7.63224L57.9359 8.12532L57.9438 8.11318L57.9513 8.10079L57.1735 7.63224ZM56.3894 8.84468L55.6269 8.3516L54.8771 9.51105L56.2388 9.74011L56.3894 8.84468ZM58.3504 9.17457L58.1998 10.07L59.5614 10.2991L59.2323 8.95812L58.3504 9.17457ZM58.0062 7.77233L57.1179 7.9606L57.1209 7.97475L57.1244 7.98879L58.0062 7.77233ZM57.7958 6.77932L58.684 6.59105L58.5559 5.98642L57.9464 5.88388L57.7958 6.77932ZM57.6973 6.76275L57.8479 5.86731L57.2384 5.76478L56.9195 6.2942L57.6973 6.76275ZM55.0213 10.2996L53.517 10.0465L53.2157 11.8374L54.72 12.0904L55.0213 10.2996ZM54.1264 11.4387L57.7593 5.88065L56.2392 4.88706L52.6063 10.4451L54.1264 11.4387ZM56.8486 6.2793L58.7648 6.60166L59.0661 4.81079L57.1499 4.48842L56.8486 6.2793ZM58.0353 5.92919L59.6675 12.373L61.428 11.9271L59.7957 5.48326L58.0353 5.92919ZM60.6984 11.2546L59.1582 10.9955L58.857 12.7864L60.3971 13.0455L60.6984 11.2546ZM59.8905 11.6788L59.5493 10.2587L57.7835 10.6829L58.1247 12.103L59.8905 11.6788ZM58.817 9.57535L55.8173 9.07071L55.5161 10.8616L58.5158 11.3662L58.817 9.57535ZM54.9046 9.47248L54.1086 10.7013L55.6328 11.6887L56.4288 10.4598L54.9046 9.47248ZM56.411 7.13917L55.6269 8.3516L57.1519 9.33776L57.9359 8.12532L56.411 7.13917ZM56.2388 9.74011L58.1998 10.07L58.501 8.27914L56.54 7.94924L56.2388 9.74011ZM59.2323 8.95812L58.8881 7.55588L57.1244 7.98879L57.4686 9.39103L59.2323 8.95812ZM58.8945 7.58407L58.684 6.59105L56.9075 6.96759L57.1179 7.9606L58.8945 7.58407ZM57.9464 5.88388L57.8479 5.86731L57.5466 7.65819L57.6451 7.67476L57.9464 5.88388ZM56.9195 6.2942L56.3957 7.16369L57.9513 8.10079L58.475 7.2313L56.9195 6.2942Z" fill="#002F49" fill-opacity="0.95" mask="url(#path-28-outside-14_1_9199)"/>
<mask id="path-30-outside-15_1_9199" maskUnits="userSpaceOnUse" x="61.4485" y="5.98835" width="11.4137" height="10.8851" fill="black">
<rect fill="white" x="61.4485" y="5.98835" width="11.4137" height="10.8851"/>
<path d="M64.3477 13.4965L63.0944 12.9632L65.4764 7.36521L66.8132 7.93405L67.6915 11.4359L67.9589 12.9411L68.0508 12.9802L68.4723 11.8273L69.6206 9.1286L70.8739 9.66188L68.4919 15.2599L67.155 14.6911L66.229 11.1392L65.9667 9.78429L65.8832 9.74874L65.496 10.7978L64.3477 13.4965Z"/>
</mask>
<path d="M64.3477 13.4965L63.9922 14.332L64.8277 14.6876L65.1832 13.852L64.3477 13.4965ZM63.0944 12.9632L62.2589 12.6077L61.9033 13.4432L62.7389 13.7988L63.0944 12.9632ZM65.4764 7.36521L65.8319 6.52969L64.9964 6.17417L64.6409 7.00969L65.4764 7.36521ZM66.8132 7.93405L67.694 7.71316L67.5841 7.27528L67.1687 7.09852L66.8132 7.93405ZM67.6915 11.4359L68.5855 11.2771L68.5799 11.2458L68.5722 11.215L67.6915 11.4359ZM67.9589 12.9411L67.0649 13.0999L67.1509 13.5841L67.6034 13.7766L67.9589 12.9411ZM68.0508 12.9802L67.6953 13.8157L68.5752 14.1901L68.9036 13.292L68.0508 12.9802ZM68.4723 11.8273L67.6367 11.4718L67.6275 11.4935L67.6194 11.5156L68.4723 11.8273ZM69.6206 9.1286L69.9761 8.29307L69.1406 7.93755L68.7851 8.77307L69.6206 9.1286ZM70.8739 9.66188L71.7094 10.0174L72.0649 9.18187L71.2294 8.82635L70.8739 9.66188ZM68.4919 15.2599L68.1364 16.0954L68.9719 16.4509L69.3274 15.6154L68.4919 15.2599ZM67.155 14.6911L66.2764 14.9202L66.389 15.3519L66.7995 15.5266L67.155 14.6911ZM66.229 11.1392L65.3375 11.3118L65.343 11.3403L65.3503 11.3683L66.229 11.1392ZM65.9667 9.78429L66.8582 9.61175L66.7665 9.13778L66.3222 8.94877L65.9667 9.78429ZM65.8832 9.74874L66.2387 8.91321L65.3614 8.53993L65.0313 9.43435L65.8832 9.74874ZM65.496 10.7978L66.3315 11.1533L66.3402 11.1329L66.3479 11.1122L65.496 10.7978ZM64.7032 12.661L63.4499 12.1277L62.7389 13.7988L63.9922 14.332L64.7032 12.661ZM63.9299 13.3188L66.3119 7.72073L64.6409 7.00969L62.2589 12.6077L63.9299 13.3188ZM65.1209 8.20074L66.4577 8.76957L67.1687 7.09852L65.8319 6.52969L65.1209 8.20074ZM65.9325 8.15493L66.8107 11.6568L68.5722 11.215L67.694 7.71316L65.9325 8.15493ZM66.7975 11.5947L67.0649 13.0999L68.8529 12.7823L68.5855 11.2771L66.7975 11.5947ZM67.6034 13.7766L67.6953 13.8157L68.4063 12.1447L68.3144 12.1056L67.6034 13.7766ZM68.9036 13.292L69.3251 12.1391L67.6194 11.5156L67.198 12.6684L68.9036 13.292ZM69.3078 12.1829L70.4561 9.48412L68.7851 8.77307L67.6367 11.4718L69.3078 12.1829ZM69.2651 9.96412L70.5184 10.4974L71.2294 8.82635L69.9761 8.29307L69.2651 9.96412ZM70.0383 9.30636L67.6564 14.9044L69.3274 15.6154L71.7094 10.0174L70.0383 9.30636ZM68.8474 14.4244L67.5106 13.8555L66.7995 15.5266L68.1364 16.0954L68.8474 14.4244ZM68.0337 14.462L67.1076 10.9102L65.3503 11.3683L66.2764 14.9202L68.0337 14.462ZM67.1204 10.9667L66.8582 9.61175L65.0752 9.95683L65.3375 11.3118L67.1204 10.9667ZM66.3222 8.94877L66.2387 8.91321L65.5276 10.5843L65.6112 10.6198L66.3222 8.94877ZM65.0313 9.43435L64.6442 10.4834L66.3479 11.1122L66.735 10.0631L65.0313 9.43435ZM64.6605 10.4422L63.5122 13.141L65.1832 13.852L66.3315 11.1533L64.6605 10.4422Z" fill="#002F49" fill-opacity="0.95" mask="url(#path-30-outside-15_1_9199)"/>
<mask id="path-32-outside-16_1_9199" maskUnits="userSpaceOnUse" x="69.6134" y="10.3779" width="11.9879" height="11.7721" fill="black">
<rect fill="white" x="69.6134" y="10.3779" width="11.9879" height="11.7721"/>
<path d="M73.7287 18.6066L71.3626 16.8736L74.9576 11.9656L77.3236 13.6987C78.8986 14.8523 79.2241 16.4976 78.0974 18.036C76.9706 19.5743 75.3037 19.7602 73.7287 18.6066ZM76.5993 14.6876L75.332 13.7593L73.1858 16.6895L74.4531 17.6177C75.4493 18.3474 76.0615 18.3569 76.9253 17.1775C77.7892 15.9981 77.5955 15.4173 76.5993 14.6876Z"/>
</mask>
<path d="M71.3626 16.8736L70.6301 16.337L70.0935 17.0695L70.8261 17.6061L71.3626 16.8736ZM74.9576 11.9656L75.4941 11.2331L74.7616 10.6965L74.225 11.429L74.9576 11.9656ZM75.332 13.7593L75.8686 13.0268L75.136 12.4903L74.5995 13.2228L75.332 13.7593ZM73.1858 16.6895L72.4533 16.1529L71.9167 16.8855L72.6492 17.422L73.1858 16.6895ZM74.2653 17.8741L71.8992 16.141L70.8261 17.6061L73.1922 19.3392L74.2653 17.8741ZM72.0952 17.4101L75.6901 12.5021L74.225 11.429L70.6301 16.337L72.0952 17.4101ZM74.421 12.6981L76.7871 14.4312L77.8602 12.9661L75.4941 11.2331L74.421 12.6981ZM76.7871 14.4312C77.4348 14.9056 77.7446 15.4191 77.8306 15.8871C77.9149 16.3462 77.8087 16.8935 77.3648 17.4994L78.8299 18.5725C79.5128 17.6401 79.8072 16.5956 79.6167 15.5589C79.4279 14.5313 78.7875 13.6453 77.8602 12.9661L76.7871 14.4312ZM77.3648 17.4994C76.921 18.1054 76.4313 18.3717 75.9682 18.4298C75.496 18.489 74.913 18.3485 74.2653 17.8741L73.1922 19.3392C74.1194 20.0184 75.1573 20.3617 76.1941 20.2317C77.2398 20.1006 78.147 19.5049 78.8299 18.5725L77.3648 17.4994ZM77.1358 13.9551L75.8686 13.0268L74.7955 14.4919L76.0627 15.4201L77.1358 13.9551ZM74.5995 13.2228L72.4533 16.1529L73.9183 17.226L76.0645 14.2959L74.5995 13.2228ZM72.6492 17.422L73.9165 18.3503L74.9896 16.8852L73.7223 15.9569L72.6492 17.422ZM73.9165 18.3503C74.4376 18.7319 75.0984 19.1198 75.8645 19.0128C76.6356 18.9051 77.1969 18.3433 77.6579 17.714L76.1928 16.6409C76.0029 16.9002 75.8579 17.0501 75.7519 17.1339C75.7013 17.1738 75.6659 17.1937 75.6449 17.2034C75.6253 17.2124 75.6158 17.2139 75.6132 17.2142C75.6082 17.2149 75.4648 17.2333 74.9896 16.8852L73.9165 18.3503ZM77.6579 17.714C78.1188 17.0847 78.4851 16.3801 78.3551 15.6124C78.2261 14.8498 77.6569 14.3367 77.1358 13.9551L76.0627 15.4201C76.5379 15.7682 76.5637 15.9104 76.5646 15.9154C76.565 15.9179 76.5665 15.9274 76.5637 15.9489C76.5608 15.9718 76.5526 16.0116 76.5298 16.0719C76.4819 16.1982 76.3827 16.3816 76.1928 16.6409L77.6579 17.714Z" fill="#002F49" fill-opacity="0.95" mask="url(#path-32-outside-16_1_9199)"/>
<mask id="path-34-outside-17_1_9199" maskUnits="userSpaceOnUse" x="79.4484" y="22.6561" width="5.61029" height="5.61029" fill="black">
<rect fill="white" x="79.4484" y="22.6561" width="5.61029" height="5.61029"/>
<path d="M82.0876 26.8835L81.0173 25.4958L82.2755 24.5253L83.3459 25.913L82.0876 26.8835Z"/>
</mask>
<path d="M82.0876 26.8835L81.3686 27.4381L81.9232 28.1571L82.6422 27.6025L82.0876 26.8835ZM81.0173 25.4958L80.4627 24.7768L79.7437 25.3314L80.2983 26.0504L81.0173 25.4958ZM82.2755 24.5253L82.9945 23.9708L82.44 23.2518L81.721 23.8063L82.2755 24.5253ZM83.3459 25.913L83.9004 26.632L84.6194 26.0774L84.0649 25.3584L83.3459 25.913ZM82.8066 26.3289L81.7363 24.9413L80.2983 26.0504L81.3686 27.4381L82.8066 26.3289ZM81.5719 26.2148L82.8301 25.2443L81.721 23.8063L80.4627 24.7768L81.5719 26.2148ZM81.5566 25.0799L82.6269 26.4676L84.0649 25.3584L82.9945 23.9708L81.5566 25.0799ZM82.7913 25.194L81.5331 26.1645L82.6422 27.6025L83.9004 26.632L82.7913 25.194Z" fill="#002F49" fill-opacity="0.95" mask="url(#path-34-outside-17_1_9199)"/>
<mask id="path-36-outside-18_1_9199" maskUnits="userSpaceOnUse" x="84.5615" y="29.2662" width="10.4272" height="10.4272" fill="black">
<rect fill="white" x="84.5615" y="29.2662" width="10.4272" height="10.4272"/>
<path d="M87.9445 37.9377L86.0019 33.1698L91.636 30.8743L93.5785 35.6423L92.4433 36.1048L91.0146 32.5982L89.9131 33.047L91.2903 36.4274L90.1635 36.8865L88.7862 33.5061L87.651 33.9686L89.0797 37.4752L87.9445 37.9377Z"/>
</mask>
<path d="M87.9445 37.9377L87.1036 38.2803L87.4462 39.1212L88.2871 38.7786L87.9445 37.9377ZM86.0019 33.1698L85.6593 32.3289L84.8184 32.6715L85.161 33.5124L86.0019 33.1698ZM91.636 30.8743L92.4769 30.5317L92.1343 29.6908L91.2934 30.0334L91.636 30.8743ZM93.5785 35.6423L93.9211 36.4832L94.762 36.1406L94.4194 35.2997L93.5785 35.6423ZM92.4433 36.1048L91.6024 36.4474L91.945 37.2883L92.7859 36.9457L92.4433 36.1048ZM91.0146 32.5982L91.8555 32.2556L91.5129 31.4147L90.672 31.7573L91.0146 32.5982ZM89.9131 33.047L89.5705 32.2061L88.7296 32.5487L89.0722 33.3896L89.9131 33.047ZM91.2903 36.4274L91.6329 37.2684L92.4738 36.9258L92.1312 36.0848L91.2903 36.4274ZM90.1635 36.8865L89.3226 37.2291L89.6652 38.07L90.5061 37.7274L90.1635 36.8865ZM88.7862 33.5061L89.6272 33.1635L89.2845 32.3226L88.4436 32.6652L88.7862 33.5061ZM87.651 33.9686L87.3084 33.1277L86.4675 33.4703L86.8101 34.3112L87.651 33.9686ZM89.0797 37.4752L89.4223 38.3161L90.2632 37.9735L89.9206 37.1326L89.0797 37.4752ZM88.7854 37.5951L86.8428 32.8272L85.161 33.5124L87.1036 38.2803L88.7854 37.5951ZM86.3445 34.0107L91.9786 31.7152L91.2934 30.0334L85.6593 32.3289L86.3445 34.0107ZM90.7951 31.2169L92.7376 35.9849L94.4194 35.2997L92.4769 30.5317L90.7951 31.2169ZM93.2359 34.8014L92.1007 35.2639L92.7859 36.9457L93.9211 36.4832L93.2359 34.8014ZM93.2842 35.7622L91.8555 32.2556L90.1737 32.9408L91.6024 36.4474L93.2842 35.7622ZM90.672 31.7573L89.5705 32.2061L90.2557 33.8879L91.3572 33.4391L90.672 31.7573ZM89.0722 33.3896L90.4494 36.7701L92.1312 36.0848L90.754 32.7044L89.0722 33.3896ZM90.9477 35.5865L89.8209 36.0456L90.5061 37.7274L91.6329 37.2684L90.9477 35.5865ZM91.0044 36.5439L89.6272 33.1635L87.9453 33.8487L89.3226 37.2291L91.0044 36.5439ZM88.4436 32.6652L87.3084 33.1277L87.9936 34.8095L89.1289 34.347L88.4436 32.6652ZM86.8101 34.3112L88.2388 37.8178L89.9206 37.1326L88.4919 33.626L86.8101 34.3112ZM88.7371 36.6343L87.6019 37.0968L88.2871 38.7786L89.4223 38.3161L88.7371 36.6343Z" fill="#002F49" fill-opacity="0.95" mask="url(#path-36-outside-18_1_9199)"/>
<mask id="path-38-outside-19_1_9199" maskUnits="userSpaceOnUse" x="87.4726" y="37.3664" width="9.67664" height="12.1509" fill="black">
<rect fill="white" x="87.4726" y="37.3664" width="9.67664" height="12.1509"/>
<path d="M89.0645 42.1856L88.7761 40.4294L92.1259 42.2811L92.2245 42.2649L94.7794 39.4437L95.0678 41.1999L93.2029 43.236L93.2191 43.3346L95.6269 44.6047L95.9153 46.3609L92.5669 44.5183L92.4683 44.5345L89.9119 47.3467L89.6236 45.5905L91.5168 43.5589L91.5006 43.4603L89.0645 42.1856Z"/>
</mask>
<path d="M89.0645 42.1856L88.1684 42.3328L88.2419 42.78L88.6435 42.9902L89.0645 42.1856ZM88.7761 40.4294L89.2154 39.6347L87.5767 38.729L87.8801 40.5766L88.7761 40.4294ZM92.1259 42.2811L91.6867 43.0758L91.9623 43.2281L92.2731 43.1771L92.1259 42.2811ZM92.2245 42.2649L92.3716 43.1609L92.6846 43.1095L92.8975 42.8744L92.2245 42.2649ZM94.7794 39.4437L95.6754 39.2965L95.3703 37.4385L94.1064 38.8342L94.7794 39.4437ZM95.0678 41.1999L95.7374 41.8132L96.0353 41.4879L95.9638 41.0527L95.0678 41.1999ZM93.2029 43.236L92.5333 42.6227L92.2354 42.948L92.3069 43.3832L93.2029 43.236ZM93.2191 43.3346L92.3231 43.4817L92.3962 43.9271L92.7954 44.1377L93.2191 43.3346ZM95.6269 44.6047L96.5229 44.4576L96.4498 44.0122L96.0506 43.8016L95.6269 44.6047ZM95.9153 46.3609L95.4775 47.1565L97.1139 48.057L96.8113 46.2138L95.9153 46.3609ZM92.5669 44.5183L93.0047 43.7228L92.7296 43.5714L92.4198 43.6223L92.5669 44.5183ZM92.4683 44.5345L92.3212 43.6385L92.0092 43.6897L91.7964 43.9237L92.4683 44.5345ZM89.9119 47.3467L89.0159 47.4938L89.3203 49.3475L90.5838 47.9575L89.9119 47.3467ZM89.6236 45.5905L88.9593 44.9715L88.6553 45.2977L88.7275 45.7376L89.6236 45.5905ZM91.5168 43.5589L92.1811 44.1779L92.4851 43.8518L92.4128 43.4118L91.5168 43.5589ZM91.5006 43.4603L92.3966 43.3132L92.3232 42.8659L91.9216 42.6558L91.5006 43.4603ZM89.9605 42.0385L89.6721 40.2823L87.8801 40.5766L88.1684 42.3328L89.9605 42.0385ZM88.3368 41.2241L91.6867 43.0758L92.5652 41.4864L89.2154 39.6347L88.3368 41.2241ZM92.2731 43.1771L92.3716 43.1609L92.0774 41.3689L91.9788 41.385L92.2731 43.1771ZM92.8975 42.8744L95.4525 40.0532L94.1064 38.8342L91.5514 41.6553L92.8975 42.8744ZM93.8834 39.5908L94.1718 41.347L95.9638 41.0527L95.6754 39.2965L93.8834 39.5908ZM94.3982 40.5866L92.5333 42.6227L93.8725 43.8493L95.7374 41.8132L94.3982 40.5866ZM92.3069 43.3832L92.3231 43.4817L94.1151 43.1875L94.0989 43.0889L92.3069 43.3832ZM92.7954 44.1377L95.2032 45.4079L96.0506 43.8016L93.6428 42.5315L92.7954 44.1377ZM94.7309 44.7519L95.0192 46.5081L96.8113 46.2138L96.5229 44.4576L94.7309 44.7519ZM96.353 45.5654L93.0047 43.7228L92.1291 45.3138L95.4775 47.1565L96.353 45.5654ZM92.4198 43.6223L92.3212 43.6385L92.6155 45.4305L92.714 45.4143L92.4198 43.6223ZM91.7964 43.9237L89.24 46.7359L90.5838 47.9575L93.1402 45.1453L91.7964 43.9237ZM90.8079 47.1996L90.5196 45.4434L88.7275 45.7376L89.0159 47.4938L90.8079 47.1996ZM90.2878 46.2096L92.1811 44.1779L90.8525 42.9399L88.9593 44.9715L90.2878 46.2096ZM92.4128 43.4118L92.3966 43.3132L90.6046 43.6075L90.6208 43.706L92.4128 43.4118ZM91.9216 42.6558L89.4854 41.3811L88.6435 42.9902L91.0796 44.2649L91.9216 42.6558Z" fill="#002F49" fill-opacity="0.95" mask="url(#path-38-outside-19_1_9199)"/>
<mask id="path-40-outside-20_1_9199" maskUnits="userSpaceOnUse" x="88.5507" y="48.8593" width="8.51865" height="8.51865" fill="black">
<rect fill="white" x="88.5507" y="48.8593" width="8.51865" height="8.51865"/>
<path d="M89.9023 51.6455L89.9937 50.2865L96.0637 50.6947L95.8505 53.8656C95.7561 55.2698 94.8979 56.1222 93.5027 56.0284C92.1075 55.9346 91.3621 54.9744 91.4565 53.5701L91.5783 51.7582L89.9023 51.6455ZM94.6372 53.6384L94.7492 51.9714L92.8014 51.8404L92.6893 53.5074C92.6388 54.2594 92.8324 54.6273 93.5935 54.6785C94.3364 54.7284 94.5866 54.3903 94.6372 53.6384Z"/>
</mask>
<path d="M89.9023 51.6455L88.9963 51.5846L88.9354 52.4905L89.8414 52.5515L89.9023 51.6455ZM89.9937 50.2865L90.0546 49.3806L89.1486 49.3196L89.0877 50.2256L89.9937 50.2865ZM96.0637 50.6947L96.9696 50.7556L97.0306 49.8496L96.1246 49.7887L96.0637 50.6947ZM91.5783 51.7582L92.4843 51.8191L92.5452 50.9131L91.6392 50.8522L91.5783 51.7582ZM94.7492 51.9714L95.6552 52.0323L95.7161 51.1263L94.8102 51.0654L94.7492 51.9714ZM92.8014 51.8404L92.8623 50.9344L91.9563 50.8735L91.8954 51.7795L92.8014 51.8404ZM90.8083 51.7064L90.8996 50.3474L89.0877 50.2256L88.9963 51.5846L90.8083 51.7064ZM89.9327 51.1925L96.0028 51.6006L96.1246 49.7887L90.0546 49.3806L89.9327 51.1925ZM95.1577 50.6337L94.9445 53.8046L96.7565 53.9265L96.9696 50.7556L95.1577 50.6337ZM94.9445 53.8046C94.9085 54.3397 94.7357 54.6654 94.5423 54.8473C94.3579 55.0208 94.0577 55.1556 93.5636 55.1224L93.4418 56.9344C94.3429 56.9949 95.1694 56.7505 95.7865 56.1702C96.3945 55.5983 96.698 54.7956 96.7565 53.9265L94.9445 53.8046ZM93.5636 55.1224C93.0692 55.0892 92.7864 54.9148 92.6243 54.7163C92.4551 54.5092 92.3267 54.1635 92.3625 53.631L90.5505 53.5092C90.4919 54.381 90.689 55.2176 91.2177 55.865C91.7535 56.5211 92.541 56.8738 93.4418 56.9344L93.5636 55.1224ZM92.3625 53.631L92.4843 51.8191L90.6724 51.6973L90.5505 53.5092L92.3625 53.631ZM91.6392 50.8522L89.9632 50.7395L89.8414 52.5515L91.5174 52.6642L91.6392 50.8522ZM95.5431 53.6993L95.6552 52.0323L93.8433 51.9105L93.7312 53.5775L95.5431 53.6993ZM94.8102 51.0654L92.8623 50.9344L92.7405 52.7464L94.6883 52.8774L94.8102 51.0654ZM91.8954 51.7795L91.7833 53.4465L93.5953 53.5683L93.7074 51.9013L91.8954 51.7795ZM91.7833 53.4465C91.7555 53.861 91.7668 54.419 92.0978 54.883C92.4645 55.3971 93.0336 55.5509 93.5325 55.5845L93.6544 53.7725C93.5935 53.7684 93.5503 53.7619 93.5211 53.7558C93.492 53.7497 93.4809 53.7447 93.4825 53.7454C93.4847 53.7464 93.4992 53.753 93.5193 53.7687C93.5401 53.785 93.5599 53.8055 93.5763 53.8284C93.6093 53.8747 93.6056 53.8983 93.5985 53.8547C93.5908 53.8072 93.5852 53.7186 93.5953 53.5683L91.7833 53.4465ZM93.5325 55.5845C94.0292 55.6178 94.6077 55.5378 95.0369 55.0807C95.4248 54.6675 95.5148 54.1203 95.5431 53.6993L93.7312 53.5775C93.7212 53.7256 93.7036 53.8118 93.6896 53.8574C93.6766 53.8993 93.6757 53.8773 93.713 53.8376C93.7314 53.818 93.753 53.8008 93.7753 53.7876C93.797 53.7748 93.8123 53.77 93.8156 53.7691C93.8178 53.7684 93.774 53.7805 93.6544 53.7725L93.5325 55.5845Z" fill="#002F49" fill-opacity="0.95" mask="url(#path-40-outside-20_1_9199)"/>
<mask id="path-42-outside-21_1_9199" maskUnits="userSpaceOnUse" x="86.2802" y="57.2677" width="9.89807" height="9.89807" fill="black">
<rect fill="white" x="86.2802" y="57.2677" width="9.89807" height="9.89807"/>
<path d="M87.6523 63.8023L89.0741 58.8541L94.9212 60.534L93.4995 65.4823L92.3213 65.1438L93.3669 61.5046L92.2237 61.1761L91.2157 64.6844L90.0463 64.3484L91.0543 60.8401L89.8761 60.5016L88.8305 64.1408L87.6523 63.8023Z"/>
</mask>
<path d="M87.6523 63.8023L86.7796 63.5516L86.5289 64.4243L87.4016 64.675L87.6523 63.8023ZM89.0741 58.8541L89.3248 57.9813L88.4521 57.7306L88.2013 58.6033L89.0741 58.8541ZM94.9212 60.534L95.7939 60.7848L96.0447 59.9121L95.172 59.6613L94.9212 60.534ZM93.4995 65.4823L93.2488 66.355L94.1215 66.6058L94.3722 65.733L93.4995 65.4823ZM92.3213 65.1438L91.4486 64.8931L91.1979 65.7658L92.0706 66.0165L92.3213 65.1438ZM93.3669 61.5046L94.2397 61.7553L94.4904 60.8826L93.6177 60.6319L93.3669 61.5046ZM92.2237 61.1761L92.4744 60.3034L91.6017 60.0527L91.351 60.9254L92.2237 61.1761ZM91.2157 64.6844L90.965 65.5571L91.8377 65.8079L92.0884 64.9352L91.2157 64.6844ZM90.0463 64.3484L89.1736 64.0977L88.9228 64.9704L89.7955 65.2211L90.0463 64.3484ZM91.0543 60.8401L91.927 61.0909L92.1777 60.2182L91.305 59.9674L91.0543 60.8401ZM89.8761 60.5016L90.1268 59.6289L89.2541 59.3782L89.0034 60.2509L89.8761 60.5016ZM88.8305 64.1408L88.5798 65.0135L89.4525 65.2643L89.7032 64.3916L88.8305 64.1408ZM88.5251 64.0531L89.9468 59.1048L88.2013 58.6033L86.7796 63.5516L88.5251 64.0531ZM88.8233 59.7268L94.6705 61.4067L95.172 59.6613L89.3248 57.9813L88.8233 59.7268ZM94.0485 60.2833L92.6268 65.2316L94.3722 65.733L95.7939 60.7848L94.0485 60.2833ZM93.7503 64.6096L92.5721 64.2711L92.0706 66.0165L93.2488 66.355L93.7503 64.6096ZM93.1941 65.3945L94.2397 61.7553L92.4942 61.2539L91.4486 64.8931L93.1941 65.3945ZM93.6177 60.6319L92.4744 60.3034L91.9729 62.0488L93.1162 62.3773L93.6177 60.6319ZM91.351 60.9254L90.343 64.4337L92.0884 64.9352L93.0964 61.4269L91.351 60.9254ZM91.4664 63.8117L90.297 63.4757L89.7955 65.2211L90.965 65.5571L91.4664 63.8117ZM90.919 64.5992L91.927 61.0909L90.1815 60.5894L89.1736 64.0977L90.919 64.5992ZM91.305 59.9674L90.1268 59.6289L89.6254 61.3743L90.8035 61.7128L91.305 59.9674ZM89.0034 60.2509L87.9578 63.8901L89.7032 64.3916L90.7488 60.7524L89.0034 60.2509ZM89.0812 63.2681L87.9031 62.9296L87.4016 64.675L88.5798 65.0135L89.0812 63.2681Z" fill="#002F49" fill-opacity="0.95" mask="url(#path-42-outside-21_1_9199)"/>
<mask id="path-44-outside-22_1_9199" maskUnits="userSpaceOnUse" x="82.0252" y="64.9489" width="11.328" height="11.7287" fill="black">
<rect fill="white" x="82.0252" y="64.9489" width="11.328" height="11.7287"/>
<path d="M85.9019 67.8207L86.5527 66.6242L91.897 69.5311L91.2028 70.8074L87.6329 71.3464L86.1091 71.4685L86.0614 71.5562L87.1686 72.0861L89.745 73.4875L89.0942 74.684L83.7499 71.7771L84.4441 70.5008L88.0682 69.919L89.4421 69.7876L89.4855 69.7079L88.4783 69.2221L85.9019 67.8207Z"/>
</mask>
<path d="M85.9019 67.8207L85.1042 67.3868L84.6704 68.1845L85.468 68.6183L85.9019 67.8207ZM86.5527 66.6242L86.9866 65.8265L86.1889 65.3927L85.755 66.1903L86.5527 66.6242ZM91.897 69.5311L92.6946 69.965L93.1285 69.1673L92.3309 68.7335L91.897 69.5311ZM91.2028 70.8074L91.3384 71.7052L91.7848 71.6378L92.0005 71.2412L91.2028 70.8074ZM87.6329 71.3464L87.7055 72.2515L87.7371 72.249L87.7685 72.2442L87.6329 71.3464ZM86.1091 71.4685L86.0366 70.5634L85.5464 70.6026L85.3114 71.0346L86.1091 71.4685ZM86.0614 71.5562L85.2637 71.1224L84.8068 71.9624L85.6694 72.3753L86.0614 71.5562ZM87.1686 72.0861L87.6024 71.2884L87.5818 71.2772L87.5606 71.267L87.1686 72.0861ZM89.745 73.4875L90.5427 73.9214L90.9765 73.1237L90.1789 72.6898L89.745 73.4875ZM89.0942 74.684L88.6603 75.4816L89.458 75.9155L89.8919 75.1178L89.0942 74.684ZM83.7499 71.7771L82.9522 71.3432L82.5184 72.1409L83.316 72.5747L83.7499 71.7771ZM84.4441 70.5008L84.3002 69.6043L83.8596 69.675L83.6464 70.0669L84.4441 70.5008ZM88.0682 69.919L87.9818 69.0151L87.953 69.0178L87.9243 69.0224L88.0682 69.919ZM89.4421 69.7876L89.5285 70.6915L90.0091 70.6456L90.2397 70.2215L89.4421 69.7876ZM89.4855 69.7079L90.2831 70.1417L90.7387 69.3042L89.88 68.89L89.4855 69.7079ZM88.4783 69.2221L88.0445 70.0197L88.0639 70.0303L88.0838 70.0399L88.4783 69.2221ZM86.6995 68.2546L87.3503 67.0581L85.755 66.1903L85.1042 67.3868L86.6995 68.2546ZM86.1188 67.4219L91.4631 70.3288L92.3309 68.7335L86.9866 65.8265L86.1188 67.4219ZM91.0993 69.0972L90.4051 70.3735L92.0005 71.2412L92.6946 69.965L91.0993 69.0972ZM91.0672 69.9095L87.4974 70.4485L87.7685 72.2442L91.3384 71.7052L91.0672 69.9095ZM87.5604 70.4413L86.0366 70.5634L86.1816 72.3736L87.7055 72.2515L87.5604 70.4413ZM85.3114 71.0346L85.2637 71.1224L86.859 71.9901L86.9067 71.9023L85.3114 71.0346ZM85.6694 72.3753L86.7766 72.9052L87.5606 71.267L86.4533 70.7372L85.6694 72.3753ZM86.7347 72.8838L89.3111 74.2852L90.1789 72.6898L87.6024 71.2884L86.7347 72.8838ZM88.9473 73.0536L88.2965 74.2501L89.8919 75.1178L90.5427 73.9214L88.9473 73.0536ZM89.5281 73.8863L84.1838 70.9794L83.316 72.5747L88.6603 75.4816L89.5281 73.8863ZM84.5476 72.2109L85.2417 70.9347L83.6464 70.0669L82.9522 71.3432L84.5476 72.2109ZM84.588 71.3974L88.2122 70.8155L87.9243 69.0224L84.3002 69.6043L84.588 71.3974ZM88.1547 70.8229L89.5285 70.6915L89.3557 68.8837L87.9818 69.0151L88.1547 70.8229ZM90.2397 70.2215L90.2831 70.1417L88.6878 69.274L88.6444 69.3538L90.2397 70.2215ZM89.88 68.89L88.8728 68.4042L88.0838 70.0399L89.091 70.5257L89.88 68.89ZM88.9122 68.4244L86.3358 67.023L85.468 68.6183L88.0445 70.0197L88.9122 68.4244Z" fill="#002F49" fill-opacity="0.95" mask="url(#path-44-outside-22_1_9199)"/>
<mask id="path-46-outside-23_1_9199" maskUnits="userSpaceOnUse" x="76.7661" y="72.7301" width="12.0415" height="11.9523" fill="black">
<rect fill="white" x="76.7661" y="72.7301" width="12.0415" height="11.9523"/>
<path d="M80.011 76.425C81.2297 75.042 82.459 74.7456 83.5218 75.6821L83.5627 75.7181L82.6622 76.74L82.5396 76.632C82.1172 76.2598 81.7608 76.3209 80.9444 77.2474C80.224 78.065 80.1786 78.3638 80.4851 78.6339C80.7644 78.88 81.0047 78.8134 81.5007 78.4154L82.8132 77.2966C83.663 76.5932 84.498 76.4697 85.2406 77.124C85.9287 77.7303 86.1585 78.9253 84.8079 80.4581C83.5712 81.8616 82.3477 81.9453 81.3871 81.0988L81.3463 81.0628L82.2527 80.0341L82.3481 80.1182C82.7841 80.5023 83.1662 80.4396 83.9646 79.5335C84.6129 78.7978 84.6679 78.4469 84.375 78.1887C84.1093 77.9546 83.8818 78.0205 83.4775 78.3419L82.1446 79.4426C81.0806 80.3205 80.2591 80.2501 79.6324 79.6978C78.8898 79.0435 78.7324 77.8761 80.011 76.425Z"/>
</mask>
<path d="M83.5627 75.7181L84.244 76.3184L84.8443 75.6372L84.163 75.0369L83.5627 75.7181ZM82.6622 76.74L82.0619 77.4213L82.7432 78.0216L83.3435 77.3403L82.6622 76.74ZM81.5007 78.4154L82.069 79.1235L82.0795 79.1151L82.0897 79.1064L81.5007 78.4154ZM82.8132 77.2966L82.2341 76.5971L82.2242 76.6056L82.8132 77.2966ZM81.3463 81.0628L80.665 80.4625L80.0647 81.1438L80.7459 81.7441L81.3463 81.0628ZM82.2527 80.0341L82.853 79.3528L82.1718 78.7525L81.5714 79.4338L82.2527 80.0341ZM83.4775 78.3419L82.9124 77.6312L82.9058 77.6364L82.8994 77.6418L83.4775 78.3419ZM82.1446 79.4426L82.7225 80.143L82.7227 80.1428L82.1446 79.4426ZM80.6923 77.0253C81.2374 76.4067 81.6915 76.1426 82.0193 76.0707C82.2919 76.011 82.5767 76.0596 82.9215 76.3634L84.1221 75.0008C83.4041 74.3682 82.5429 74.0968 81.6304 74.2968C80.7732 74.4848 80.0033 75.0603 79.3298 75.8247L80.6923 77.0253ZM82.9215 76.3634L82.9624 76.3994L84.163 75.0369L84.1221 75.0008L82.9215 76.3634ZM82.8814 75.1178L81.981 76.1397L83.3435 77.3403L84.244 76.3184L82.8814 75.1178ZM83.2625 76.0588L83.1399 75.9507L81.9393 77.3133L82.0619 77.4213L83.2625 76.0588ZM83.1399 75.9507C82.9851 75.8143 82.7704 75.6571 82.4914 75.5722C82.1887 75.48 81.882 75.4943 81.5923 75.5948C81.0989 75.7658 80.6672 76.1886 80.2631 76.6471L81.6257 77.8477C81.8147 77.6332 81.9566 77.4926 82.0631 77.403C82.1732 77.3104 82.2103 77.3026 82.1872 77.3106C82.1414 77.3265 82.0541 77.3374 81.9626 77.3095C81.8947 77.2888 81.8829 77.2636 81.9393 77.3133L83.1399 75.9507ZM80.2631 76.6471C79.9093 77.0486 79.5866 77.4619 79.4598 77.8854C79.3851 78.1349 79.366 78.4235 79.4693 78.7185C79.5672 78.9979 79.7432 79.1904 79.8848 79.3152L81.0854 77.9526C81.0738 77.9424 81.1405 77.9962 81.1832 78.1181C81.2314 78.2555 81.2111 78.3677 81.1995 78.4064C81.1931 78.4278 81.1998 78.3935 81.2749 78.2839C81.3465 78.1794 81.4578 78.0383 81.6257 77.8477L80.2631 76.6471ZM79.8848 79.3152C80.0154 79.4303 80.1907 79.5529 80.4164 79.6248C80.654 79.7004 80.8912 79.702 81.1128 79.6517C81.4942 79.565 81.8226 79.3212 82.069 79.1235L80.9323 77.7072C80.823 77.795 80.7503 77.846 80.7025 77.8748C80.6531 77.9047 80.6607 77.8921 80.7106 77.8807C80.7385 77.8744 80.7781 77.8688 80.8262 77.8703C80.8751 77.8718 80.9231 77.8803 80.9674 77.8943C81.054 77.9219 81.0945 77.9606 81.0854 77.9526L79.8848 79.3152ZM82.0897 79.1064L83.4022 77.9877L82.2242 76.6056L80.9117 77.7243L82.0897 79.1064ZM83.3922 77.9961C83.7351 77.7122 83.9878 77.6201 84.1492 77.6054C84.2771 77.5938 84.4311 77.6209 84.6403 77.8053L85.8409 76.4427C85.3075 75.9727 84.6727 75.7344 83.985 75.7968C83.3308 75.8562 82.7411 76.1776 82.2342 76.5972L83.3922 77.9961ZM84.6403 77.8053C84.7904 77.9375 84.894 78.1276 84.8816 78.403C84.8684 78.6984 84.7143 79.1909 84.1266 79.8578L85.4891 81.0584C86.2521 80.1925 86.6584 79.3211 86.6959 78.4842C86.7342 77.6274 86.3788 76.9168 85.8409 76.4427L84.6403 77.8053ZM84.1266 79.8578C83.591 80.4656 83.1527 80.6784 82.854 80.725C82.5864 80.7668 82.3033 80.6959 81.9874 80.4176L80.7868 81.7801C81.4316 82.3482 82.2405 82.6587 83.1339 82.5194C83.9963 82.3848 84.7881 81.8541 85.4891 81.0584L84.1266 79.8578ZM81.9874 80.4176L81.9466 80.3816L80.7459 81.7441L80.7868 81.7801L81.9874 80.4176ZM82.0275 81.6631L82.934 80.6344L81.5714 79.4338L80.665 80.4625L82.0275 81.6631ZM81.6524 80.7154L81.7478 80.7994L82.9484 79.4369L82.853 79.3528L81.6524 80.7154ZM81.7478 80.7994C81.9089 80.9414 82.1257 81.0975 82.4034 81.1836C82.7019 81.2761 83.0074 81.2684 83.3002 81.1735C83.8077 81.0091 84.2448 80.5889 84.6458 80.1338L83.2833 78.9332C83.1007 79.1404 82.963 79.275 82.86 79.3596C82.7541 79.4466 82.7181 79.4532 82.7406 79.4459C82.7837 79.4319 82.862 79.4244 82.9413 79.449C82.9998 79.4672 83.0053 79.487 82.9484 79.4369L81.7478 80.7994ZM84.6458 80.1338C84.9801 79.7544 85.2811 79.3496 85.3984 78.9224C85.4643 78.6824 85.4804 78.4077 85.3902 78.1267C85.3013 77.85 85.1355 77.6486 84.9753 77.5075L83.7747 78.87C83.761 78.8579 83.6981 78.7971 83.6611 78.6819C83.6227 78.5623 83.6394 78.4697 83.6471 78.4417C83.6518 78.4246 83.6455 78.4574 83.5833 78.5526C83.5233 78.6444 83.4282 78.7687 83.2833 78.9332L84.6458 80.1338ZM84.9753 77.5075C84.6927 77.2585 84.2936 77.0705 83.8047 77.1657C83.4288 77.2389 83.1205 77.4658 82.9124 77.6312L84.0427 79.0527C84.1267 78.9858 84.1779 78.9515 84.2063 78.935C84.2354 78.9182 84.2131 78.9363 84.1518 78.9483C84.0778 78.9627 83.9842 78.9608 83.8917 78.9299C83.8094 78.9024 83.7699 78.8658 83.7747 78.87L84.9753 77.5075ZM82.8994 77.6418L81.5664 78.7425L82.7227 80.1428L84.0557 79.0421L82.8994 77.6418ZM81.5667 78.7422C81.1236 79.1078 80.8318 79.1912 80.6742 79.1999C80.5414 79.2073 80.4048 79.1683 80.2327 79.0166L79.0321 80.3791C79.4866 80.7797 80.0742 81.052 80.7748 81.0132C81.4507 80.9757 82.1016 80.6553 82.7225 80.143L81.5667 78.7422ZM80.2327 79.0166C80.0511 78.8566 79.9579 78.6614 79.9706 78.4054C79.9847 78.1222 80.137 77.6555 80.6923 77.0253L79.3298 75.8247C78.6064 76.6456 78.1981 77.4882 78.1568 78.315C78.1143 79.1691 78.4711 79.8848 79.0321 80.3791L80.2327 79.0166Z" fill="#002F49" fill-opacity="0.95" mask="url(#path-46-outside-23_1_9199)"/>
<mask id="path-48-outside-24_1_9199" maskUnits="userSpaceOnUse" x="70.0233" y="79.0334" width="11.1874" height="11.1874" fill="black">
<rect fill="white" x="70.0233" y="79.0334" width="11.1874" height="11.1874"/>
<path d="M71.8146 83.705L75.9569 80.6475L79.5698 85.5423L75.4275 88.5998L74.6995 87.6135L77.746 85.3649L77.0396 84.4079L74.1027 86.5756L73.3801 85.5966L76.317 83.4289L75.589 82.4427L72.5426 84.6913L71.8146 83.705Z"/>
</mask>
<path d="M71.8146 83.705L71.2754 82.9744L70.5448 83.5137L71.084 84.2442L71.8146 83.705ZM75.9569 80.6475L76.6875 80.1083L76.1482 79.3777L75.4177 79.917L75.9569 80.6475ZM79.5698 85.5423L80.109 86.2729L80.8396 85.7337L80.3003 85.0031L79.5698 85.5423ZM75.4275 88.5998L74.6969 89.139L75.2361 89.8696L75.9667 89.3303L75.4275 88.5998ZM74.6995 87.6135L74.1603 86.883L73.4297 87.4222L73.9689 88.1528L74.6995 87.6135ZM77.746 85.3649L78.2852 86.0955L79.0158 85.5562L78.4765 84.8257L77.746 85.3649ZM77.0396 84.4079L77.7701 83.8686L77.2309 83.1381L76.5003 83.6773L77.0396 84.4079ZM74.1027 86.5756L73.3721 87.1148L73.9114 87.8454L74.6419 87.3062L74.1027 86.5756ZM73.3801 85.5966L72.8409 84.8661L72.1103 85.4053L72.6496 86.1359L73.3801 85.5966ZM76.317 83.4289L76.8562 84.1595L77.5868 83.6202L77.0476 82.8897L76.317 83.4289ZM75.589 82.4427L76.3196 81.9034L75.7804 81.1729L75.0498 81.7121L75.589 82.4427ZM72.5426 84.6913L71.812 85.2305L72.3512 85.9611L73.0818 85.4218L72.5426 84.6913ZM72.3538 84.4356L76.4961 81.3781L75.4177 79.917L71.2754 82.9744L72.3538 84.4356ZM75.2263 81.1868L78.8392 86.0816L80.3003 85.0031L76.6875 80.1083L75.2263 81.1868ZM79.0305 84.8118L74.8882 87.8692L75.9667 89.3303L80.109 86.2729L79.0305 84.8118ZM76.158 88.0605L75.4301 87.0743L73.9689 88.1528L74.6969 89.139L76.158 88.0605ZM75.2387 88.3441L78.2852 86.0955L77.2067 84.6343L74.1603 86.883L75.2387 88.3441ZM78.4765 84.8257L77.7701 83.8686L76.309 84.9471L77.0154 85.9041L78.4765 84.8257ZM76.5003 83.6773L73.5635 85.845L74.6419 87.3062L77.5788 85.1384L76.5003 83.6773ZM74.8333 86.0364L74.1107 85.0574L72.6496 86.1359L73.3721 87.1148L74.8333 86.0364ZM73.9194 86.3272L76.8562 84.1595L75.7778 82.6984L72.8409 84.8661L73.9194 86.3272ZM77.0476 82.8897L76.3196 81.9034L74.8585 82.9819L75.5864 83.9682L77.0476 82.8897ZM75.0498 81.7121L72.0033 83.9607L73.0818 85.4218L76.1283 83.1732L75.0498 81.7121ZM73.2731 84.152L72.5452 83.1658L71.084 84.2442L71.812 85.2305L73.2731 84.152Z" fill="#002F49" fill-opacity="0.95" mask="url(#path-48-outside-24_1_9199)"/>
<mask id="path-50-outside-25_1_9199" maskUnits="userSpaceOnUse" x="62.7532" y="83.7859" width="10.9904" height="11.4915" fill="black">
<rect fill="white" x="62.7532" y="83.7859" width="10.9904" height="11.4915"/>
<path d="M66.661 86.3084C68.3417 85.5514 69.5838 85.7886 70.1656 87.0801L70.1879 87.1298L68.9461 87.6892L68.8789 87.5401C68.6477 87.0268 68.2979 86.9355 67.1719 87.4426C66.1784 87.8901 66.0137 88.1435 66.1815 88.5161C66.3344 88.8555 66.5808 88.894 67.1968 88.736L68.8539 88.2585C69.9183 87.9683 70.7299 88.2003 71.1363 89.1027C71.513 89.9389 71.2293 91.1223 69.3665 91.9613C67.661 92.7295 66.512 92.301 65.9862 91.1336L65.9638 91.0839L67.214 90.5208L67.2662 90.6367C67.5048 91.1666 67.8787 91.2671 68.9799 90.7711C69.874 90.3684 70.0689 90.0715 69.9085 89.7155C69.7631 89.3926 69.5288 89.3587 69.0278 89.4847L67.3595 89.9374C66.0281 90.2981 65.3088 89.8951 64.9658 89.1334C64.5593 88.231 64.8976 87.1027 66.661 86.3084Z"/>
</mask>
<path d="M70.1879 87.1298L70.5608 87.9577L71.3888 87.5848L71.0159 86.7569L70.1879 87.1298ZM68.9461 87.6892L68.1182 88.0621L68.4911 88.89L69.319 88.5171L68.9461 87.6892ZM67.1968 88.736L67.4223 89.6156L67.4353 89.6122L67.4482 89.6085L67.1968 88.736ZM68.8539 88.2585L68.6151 87.3823L68.6025 87.386L68.8539 88.2585ZM65.9638 91.0839L65.5909 90.256L64.763 90.6289L65.1359 91.4568L65.9638 91.0839ZM67.214 90.5208L68.0419 90.1479L67.669 89.32L66.8411 89.6929L67.214 90.5208ZM69.0278 89.4847L68.8063 88.6042L68.7982 88.6062L68.7901 88.6084L69.0278 89.4847ZM67.3595 89.9374L67.5969 90.8139L67.5973 90.8138L67.3595 89.9374ZM67.0339 87.1363C67.7857 86.7977 68.3083 86.7444 68.6366 86.8142C68.9095 86.8722 69.1489 87.034 69.3377 87.453L70.9935 86.7072C70.6005 85.8347 69.9279 85.2321 69.0142 85.0379C68.1559 84.8554 67.217 85.0621 66.2881 85.4805L67.0339 87.1363ZM69.3377 87.453L69.36 87.5027L71.0159 86.7569L70.9935 86.7072L69.3377 87.453ZM69.815 86.3019L68.5732 86.8612L69.319 88.5171L70.5608 87.9577L69.815 86.3019ZM69.774 87.3163L69.7069 87.1672L68.051 87.913L68.1182 88.0621L69.774 87.3163ZM69.7069 87.1672C69.6221 86.9791 69.4914 86.7473 69.2723 86.5548C69.0346 86.346 68.7493 86.2325 68.444 86.2045C67.924 86.1567 67.3563 86.3637 66.799 86.6147L67.5448 88.2705C67.8056 88.1531 67.9928 88.0835 68.1268 88.0459C68.2653 88.0069 68.3023 88.0151 68.2779 88.0129C68.2297 88.0085 68.1457 87.9824 68.0738 87.9192C68.0205 87.8724 68.0202 87.8445 68.051 87.913L69.7069 87.1672ZM66.799 86.6147C66.3111 86.8345 65.8466 87.0778 65.5563 87.4113C65.3854 87.6077 65.2489 87.8627 65.2213 88.174C65.1952 88.4689 65.2761 88.7168 65.3536 88.889L67.0094 88.1432C67.0031 88.1291 67.0416 88.2056 67.0302 88.3342C67.0174 88.4793 66.9527 88.5731 66.9261 88.6036C66.9115 88.6204 66.9318 88.592 67.0453 88.5231C67.1537 88.4574 67.3133 88.3748 67.5448 88.2705L66.799 86.6147ZM65.3536 88.889C65.4251 89.0477 65.5341 89.2317 65.7101 89.3904C65.8954 89.5573 66.1108 89.6566 66.3333 89.7021C66.7166 89.7806 67.1163 89.694 67.4223 89.6156L66.9712 87.8564C66.8354 87.8913 66.7481 87.9077 66.6927 87.9143C66.6354 87.9211 66.6475 87.9127 66.6976 87.923C66.7257 87.9288 66.764 87.94 66.8073 87.9612C66.8512 87.9828 66.8915 88.0103 66.9259 88.0414C66.9935 88.1023 67.0144 88.1542 67.0094 88.1432L65.3536 88.889ZM67.4482 89.6085L69.1054 89.131L68.6025 87.386L66.9454 87.8635L67.4482 89.6085ZM69.0928 89.1345C69.5223 89.0174 69.7905 89.0377 69.9435 89.091C70.0648 89.1332 70.1939 89.2214 70.3084 89.4756L71.9642 88.7298C71.6723 88.0816 71.1923 87.6026 70.5402 87.3757C69.9197 87.1599 69.25 87.2093 68.6151 87.3824L69.0928 89.1345ZM70.3084 89.4756C70.3906 89.658 70.4065 89.8739 70.2817 90.1197C70.1477 90.3833 69.8042 90.7683 68.9936 91.1334L69.7395 92.7892C70.7917 92.3152 71.5214 91.689 71.9008 90.9422C72.2892 90.1775 72.2587 89.3835 71.9642 88.7298L70.3084 89.4756ZM68.9936 91.1334C68.255 91.4661 67.7679 91.4791 67.4767 91.3983C67.2156 91.3259 66.987 91.1445 66.8141 90.7607L65.1583 91.5065C65.5112 92.29 66.12 92.9066 66.9913 93.1483C67.8324 93.3815 68.7726 93.2247 69.7395 92.7892L68.9936 91.1334ZM66.8141 90.7607L66.7917 90.711L65.1359 91.4568L65.1583 91.5065L66.8141 90.7607ZM66.3367 91.9118L67.5869 91.3487L66.8411 89.6929L65.5909 90.256L66.3367 91.9118ZM66.3861 90.8937L66.4383 91.0097L68.0941 90.2638L68.0419 90.1479L66.3861 90.8937ZM66.4383 91.0097C66.5264 91.2054 66.6595 91.437 66.877 91.6301C67.1107 91.8375 67.3921 91.9565 67.6981 91.9909C68.2282 92.0506 68.7997 91.8481 69.3528 91.599L68.6069 89.9432C68.3551 90.0566 68.1742 90.1224 68.0454 90.157C67.9131 90.1925 67.8776 90.1836 67.9011 90.1863C67.9461 90.1914 68.0205 90.2169 68.0826 90.272C68.1284 90.3126 68.1252 90.333 68.0941 90.2638L66.4383 91.0097ZM69.3528 91.599C69.8138 91.3914 70.255 91.1468 70.5381 90.806C70.6971 90.6145 70.8251 90.371 70.8589 90.0778C70.8921 89.7891 70.8241 89.5372 70.7365 89.3425L69.0806 90.0884C69.0731 90.0717 69.0409 89.9904 69.0548 89.8701C69.0691 89.7453 69.1226 89.6679 69.1412 89.6455C69.1524 89.632 69.1332 89.6592 69.0373 89.7202C68.9447 89.7791 68.8069 89.8532 68.6069 89.9432L69.3528 91.599ZM70.7365 89.3425C70.5818 88.9992 70.2958 88.6633 69.8111 88.5483C69.4385 88.4598 69.0641 88.5393 68.8063 88.6042L69.2494 90.3653C69.3535 90.3391 69.4143 90.329 69.447 90.3257C69.4804 90.3223 69.4526 90.3297 69.3919 90.3152C69.3185 90.2978 69.2341 90.2575 69.1625 90.1912C69.0989 90.1322 69.078 90.0826 69.0806 90.0884L70.7365 89.3425ZM68.7901 88.6084L67.1217 89.0611L67.5973 90.8138L69.2656 90.3611L68.7901 88.6084ZM67.1221 89.061C66.5677 89.2112 66.2674 89.1667 66.1203 89.1097C65.9962 89.0616 65.8879 88.9697 65.7937 88.7605L64.1379 89.5063C64.3867 90.0588 64.8096 90.5493 65.4638 90.8029C66.0949 91.0476 66.82 91.0243 67.5969 90.8139L67.1221 89.061ZM65.7937 88.7605C65.6943 88.5398 65.6899 88.3236 65.8071 88.0957C65.9368 87.8435 66.2681 87.4812 67.0339 87.1363L66.2881 85.4805C65.2905 85.9298 64.5709 86.5288 64.1922 87.265C63.8011 88.0254 63.8308 88.8246 64.1379 89.5063L65.7937 88.7605Z" fill="#002F49" fill-opacity="0.95" mask="url(#path-50-outside-25_1_9199)"/>
<mask id="path-52-outside-26_1_9199" maskUnits="userSpaceOnUse" x="54.473" y="88.1301" width="4.54389" height="4.54389" fill="black">
<rect fill="white" x="54.473" y="88.1301" width="4.54389" height="4.54389"/>
<path d="M55.5843 89.5634L57.3178 89.3061L57.5511 90.8779L55.8176 91.1352L55.5843 89.5634Z"/>
</mask>
<path d="M55.5843 89.5634L55.451 88.6652L54.5528 88.7985L54.6861 89.6967L55.5843 89.5634ZM57.3178 89.3061L58.216 89.1728L58.0827 88.2746L57.1845 88.4079L57.3178 89.3061ZM57.5511 90.8779L57.6844 91.7761L58.5826 91.6428L58.4493 90.7446L57.5511 90.8779ZM55.8176 91.1352L54.9194 91.2685L55.0527 92.1667L55.9509 92.0334L55.8176 91.1352ZM55.7176 90.4616L57.4511 90.2043L57.1845 88.4079L55.451 88.6652L55.7176 90.4616ZM56.4196 89.4394L56.6529 91.0112L58.4493 90.7446L58.216 89.1728L56.4196 89.4394ZM57.4178 89.9797L55.6843 90.237L55.9509 92.0334L57.6844 91.7761L57.4178 89.9797ZM56.7158 91.0019L56.4825 89.4301L54.6861 89.6967L54.9194 91.2685L56.7158 91.0019Z" fill="#002F49" fill-opacity="0.95" mask="url(#path-52-outside-26_1_9199)"/>
<path d="M38 45.643C38 41.9742 40.9742 39 44.643 39H63.7968C63.7968 42.6688 60.8227 45.643 57.1539 45.643H38Z" fill="#002F49" fill-opacity="0.95"/>
<path d="M38 52.1942C38 49.2297 40.4032 46.8265 43.3676 46.8265H58.8408C58.8408 50.4953 55.8666 53.4695 52.1978 53.4695H38V52.1942Z" fill="#002F49" fill-opacity="0.95"/>
<path d="M38 54.6582H63.7968C63.7968 58.327 60.8227 61.3012 57.1539 61.3012H44.643C40.9742 61.3012 38 58.327 38 54.6582Z" fill="#002F49" fill-opacity="0.95"/>
</svg>
