<svg width="276" height="56" viewBox="0 0 276 56" fill="none" xmlns="http://www.w3.org/2000/svg">
<ellipse cx="271" cy="42.7541" rx="5" ry="4.7541" fill="#F8FBFD"/>
<path d="M65.15 48.4C62.6167 48.4 60.3333 47.8333 58.3 46.7C56.2667 45.5333 54.65 43.9167 53.45 41.85C52.2833 39.7833 51.7 37.35 51.7 34.55C51.7 31.7167 52.2833 29.2667 53.45 27.2C54.65 25.1333 56.2667 23.5333 58.3 22.4C60.3333 21.2667 62.6167 20.7 65.15 20.7C67.4167 20.7 69.4 21.2 71.1 22.2C72.8 23.2 74.1167 24.7167 75.05 26.75C75.9833 28.7833 76.45 31.3833 76.45 34.55C76.45 37.6833 76 40.2833 75.1 42.35C74.2 44.3833 72.9 45.9 71.2 46.9C69.5333 47.9 67.5167 48.4 65.15 48.4ZM66.5 42C67.7667 42 68.9167 41.7 69.95 41.1C70.9833 40.5 71.8 39.65 72.4 38.55C73.0333 37.4167 73.35 36.0833 73.35 34.55C73.35 32.9833 73.0333 31.65 72.4 30.55C71.8 29.45 70.9833 28.6 69.95 28C68.9167 27.4 67.7667 27.1 66.5 27.1C65.2 27.1 64.0333 27.4 63 28C61.9667 28.6 61.1333 29.45 60.5 30.55C59.9 31.65 59.6 32.9833 59.6 34.55C59.6 36.0833 59.9 37.4167 60.5 38.55C61.1333 39.65 61.9667 40.5 63 41.1C64.0333 41.7 65.2 42 66.5 42ZM73.55 48V42.5L73.7 34.5L73.2 26.55V10.9H81V48H73.55ZM99.5691 48.4C97.3358 48.4 95.3358 47.9667 93.5691 47.1C91.8358 46.2333 90.4858 44.9167 89.5191 43.15C88.5525 41.35 88.0691 39.0667 88.0691 36.3V21.1H95.8691V35.15C95.8691 37.3833 96.3358 39.0333 97.2691 40.1C98.2358 41.1333 99.5858 41.65 101.319 41.65C102.519 41.65 103.586 41.4 104.519 40.9C105.452 40.3667 106.186 39.5667 106.719 38.5C107.252 37.4 107.519 36.0333 107.519 34.4V21.1H115.319V48H107.919V40.6L109.269 42.75C108.369 44.6167 107.036 46.0333 105.269 47C103.536 47.9333 101.636 48.4 99.5691 48.4ZM134.345 48.25C131.845 48.25 129.595 47.6833 127.595 46.55C125.629 45.4167 124.079 43.85 122.945 41.85C121.812 39.8167 121.245 37.4833 121.245 34.85C121.245 32.1833 121.812 29.85 122.945 27.85C124.079 25.85 125.629 24.3 127.595 23.2C129.595 22.0667 131.845 21.5 134.345 21.5C136.645 21.5 138.695 22.0167 140.495 23.05C142.329 24.0833 143.779 25.6 144.845 27.6C145.945 29.5667 146.495 31.9833 146.495 34.85C146.495 37.6833 145.962 40.1 144.895 42.1C143.829 44.1 142.379 45.6333 140.545 46.7C138.745 47.7333 136.679 48.25 134.345 48.25ZM134.595 45.1C136.462 45.1 138.129 44.6833 139.595 43.85C141.095 42.9833 142.262 41.7833 143.095 40.25C143.962 38.6833 144.395 36.8833 144.395 34.85C144.395 32.7833 143.962 30.9833 143.095 29.45C142.262 27.9167 141.095 26.7333 139.595 25.9C138.129 25.0333 136.462 24.6 134.595 24.6C132.762 24.6 131.112 25.0333 129.645 25.9C128.179 26.7333 127.012 27.9167 126.145 29.45C125.279 30.9833 124.845 32.7833 124.845 34.85C124.845 36.8833 125.279 38.6833 126.145 40.25C127.012 41.7833 128.179 42.9833 129.645 43.85C131.112 44.6833 132.762 45.1 134.595 45.1ZM144.495 48V40.1L144.845 34.8L144.345 29.5V10.9H147.895V48H144.495ZM168.932 48.25C166.199 48.25 163.799 47.6833 161.732 46.55C159.665 45.3833 158.049 43.8 156.882 41.8C155.715 39.7667 155.132 37.45 155.132 34.85C155.132 32.25 155.682 29.95 156.782 27.95C157.915 25.95 159.449 24.3833 161.382 23.25C163.349 22.0833 165.549 21.5 167.982 21.5C170.449 21.5 172.632 22.0667 174.532 23.2C176.465 24.3 177.982 25.8667 179.082 27.9C180.182 29.9 180.732 32.2167 180.732 34.85C180.732 35.0167 180.715 35.2 180.682 35.4C180.682 35.5667 180.682 35.75 180.682 35.95H157.832V33.3H178.782L177.382 34.35C177.382 32.45 176.965 30.7667 176.132 29.3C175.332 27.8 174.232 26.6333 172.832 25.8C171.432 24.9667 169.815 24.55 167.982 24.55C166.182 24.55 164.565 24.9667 163.132 25.8C161.699 26.6333 160.582 27.8 159.782 29.3C158.982 30.8 158.582 32.5167 158.582 34.45V35C158.582 37 159.015 38.7667 159.882 40.3C160.782 41.8 162.015 42.9833 163.582 43.85C165.182 44.6833 166.999 45.1 169.032 45.1C170.632 45.1 172.115 44.8167 173.482 44.25C174.882 43.6833 176.082 42.8167 177.082 41.65L179.082 43.95C177.915 45.35 176.449 46.4167 174.682 47.15C172.949 47.8833 171.032 48.25 168.932 48.25ZM195.008 48.25C192.841 48.25 190.791 47.95 188.858 47.35C186.924 46.7167 185.408 45.9333 184.308 45L185.908 42.2C186.974 43 188.341 43.7 190.008 44.3C191.674 44.8667 193.424 45.15 195.258 45.15C197.758 45.15 199.558 44.7667 200.658 44C201.758 43.2 202.308 42.15 202.308 40.85C202.308 39.8833 201.991 39.1333 201.358 38.6C200.758 38.0333 199.958 37.6167 198.958 37.35C197.958 37.05 196.841 36.8 195.608 36.6C194.374 36.4 193.141 36.1667 191.908 35.9C190.708 35.6333 189.608 35.25 188.608 34.75C187.608 34.2167 186.791 33.5 186.158 32.6C185.558 31.7 185.258 30.5 185.258 29C185.258 27.5667 185.658 26.2833 186.458 25.15C187.258 24.0167 188.424 23.1333 189.958 22.5C191.524 21.8333 193.424 21.5 195.658 21.5C197.358 21.5 199.058 21.7333 200.758 22.2C202.458 22.6333 203.858 23.2167 204.958 23.95L203.408 26.8C202.241 26 200.991 25.4333 199.658 25.1C198.324 24.7333 196.991 24.55 195.658 24.55C193.291 24.55 191.541 24.9667 190.408 25.8C189.308 26.6 188.758 27.6333 188.758 28.9C188.758 29.9 189.058 30.6833 189.658 31.25C190.291 31.8167 191.108 32.2667 192.108 32.6C193.141 32.9 194.258 33.15 195.458 33.35C196.691 33.55 197.908 33.8 199.108 34.1C200.341 34.3667 201.458 34.75 202.458 35.25C203.491 35.7167 204.308 36.4 204.908 37.3C205.541 38.1667 205.858 39.3167 205.858 40.75C205.858 42.2833 205.424 43.6167 204.558 44.75C203.724 45.85 202.491 46.7167 200.858 47.35C199.258 47.95 197.308 48.25 195.008 48.25ZM215.172 41.2L215.272 36.65L231.622 21.75H235.972L224.422 32.8L222.422 34.5L215.172 41.2ZM212.372 48V10.9H215.922V48H212.372ZM232.722 48L221.772 34.35L224.072 31.6L237.072 48H232.722ZM248.67 48.25C246.503 48.25 244.453 47.95 242.52 47.35C240.587 46.7167 239.07 45.9333 237.97 45L239.57 42.2C240.637 43 242.003 43.7 243.67 44.3C245.337 44.8667 247.087 45.15 248.92 45.15C251.42 45.15 253.22 44.7667 254.32 44C255.42 43.2 255.97 42.15 255.97 40.85C255.97 39.8833 255.653 39.1333 255.02 38.6C254.42 38.0333 253.62 37.6167 252.62 37.35C251.62 37.05 250.503 36.8 249.27 36.6C248.037 36.4 246.803 36.1667 245.57 35.9C244.37 35.6333 243.27 35.25 242.27 34.75C241.27 34.2167 240.453 33.5 239.82 32.6C239.22 31.7 238.92 30.5 238.92 29C238.92 27.5667 239.32 26.2833 240.12 25.15C240.92 24.0167 242.087 23.1333 243.62 22.5C245.187 21.8333 247.087 21.5 249.32 21.5C251.02 21.5 252.72 21.7333 254.42 22.2C256.12 22.6333 257.52 23.2167 258.62 23.95L257.07 26.8C255.903 26 254.653 25.4333 253.32 25.1C251.987 24.7333 250.653 24.55 249.32 24.55C246.953 24.55 245.203 24.9667 244.07 25.8C242.97 26.6 242.42 27.6333 242.42 28.9C242.42 29.9 242.72 30.6833 243.32 31.25C243.953 31.8167 244.77 32.2667 245.77 32.6C246.803 32.9 247.92 33.15 249.12 33.35C250.353 33.55 251.57 33.8 252.77 34.1C254.003 34.3667 255.12 34.75 256.12 35.25C257.153 35.7167 257.97 36.4 258.57 37.3C259.203 38.1667 259.52 39.3167 259.52 40.75C259.52 42.2833 259.087 43.6167 258.22 44.75C257.387 45.85 256.153 46.7167 254.52 47.35C252.92 47.95 250.97 48.25 248.67 48.25Z" fill="#F8FBFD"/>
<path d="M0 21.9148C0 15.3344 5.33443 10 11.9148 10H46C46 16.5804 40.6656 21.9148 34.0852 21.9148H0Z" fill="#F8FBFD"/>
<path d="M0 34.3196C0 28.644 4.60099 24.043 10.2766 24.043H37.1626C37.1626 30.6233 31.8281 35.9578 25.2478 35.9578H0V34.3196Z" fill="#F8FBFD"/>
<path d="M0 38.085H46C46 44.6653 40.6656 49.9998 34.0852 49.9998H11.9148C5.33444 49.9998 0 44.6653 0 38.085Z" fill="#F8FBFD"/>
</svg>
