<svg width="14" height="14" viewBox="0 0 14 14" fill="none" xmlns="http://www.w3.org/2000/svg">
<g id="elements">
<path id="Vector" d="M7 11.4686C6.14935 11.8659 5.03196 12.1069 3.80817 12.1069C3.12772 12.1069 2.48017 12.0324 1.89307 11.8979C1.51566 11.8115 1.32696 11.7683 1.10084 11.5894C0.971881 11.4873 0.810925 11.2853 0.74025 11.1368C0.616333 10.8765 0.616333 10.624 0.616333 10.1191V3.24256C0.616333 2.61387 1.28025 2.18207 1.89307 2.32243C2.48017 2.45691 3.12772 2.53143 3.80817 2.53143C5.03196 2.53143 6.14935 2.29036 7 1.89307C7.85065 1.49577 8.96805 1.2547 10.1918 1.2547C10.8723 1.2547 11.5198 1.32923 12.1069 1.4637C12.4843 1.55014 12.673 1.59336 12.8992 1.77228C13.0281 1.87432 13.1891 2.07631 13.2598 2.2248C13.3837 2.48516 13.3837 2.73762 13.3837 3.24256V6.68082" stroke="#002F49" stroke-opacity="0.95" stroke-width="0.957551" stroke-linecap="round"/>
<path id="Vector_2" d="M11.1494 12.7453L11.1494 8.27673M8.91516 10.511H13.3837" stroke="#002F49" stroke-opacity="0.95" stroke-width="0.957551" stroke-linecap="round"/>
<path id="Ellipse 1574" d="M8.59589 6.68082C8.59589 7.56222 7.88137 8.27674 6.99997 8.27674C6.11857 8.27674 5.40405 7.56222 5.40405 6.68082C5.40405 5.79942 6.11857 5.0849 6.99997 5.0849C7.88137 5.0849 8.59589 5.79942 8.59589 6.68082Z" stroke="#002F49" stroke-opacity="0.95" stroke-width="0.957551"/>
<path id="Vector_3" d="M2.85059 7.31918L2.85059 7.32492" stroke="#002F49" stroke-opacity="0.95" stroke-width="1.27673" stroke-linecap="round" stroke-linejoin="round"/>
</g>
</svg>
